if (_typeface_js && _typeface_js.loadFace) _typeface_js.loadFace({"glyphs":{"S":{"x_min":19.296875,"x_max":835.921875,"ha":900,"o":"m 835 698 b 483 1015 842 919 675 1015 b 129 727 310 1015 129 919 b 347 477 129 581 231 509 l 479 441 b 651 277 574 415 651 379 b 408 87 651 144 529 87 b 149 325 250 87 141 145 l 20 325 b 402 -23 4 81 168 -23 b 781 277 578 -23 781 73 b 547 545 781 455 668 512 l 416 581 b 258 741 328 606 258 645 b 483 904 258 859 387 904 b 706 698 616 904 710 855 l 835 698 "},"¦":{"x_min":104.8125,"x_max":197.359375,"ha":308,"o":"m 104 -123 l 197 -123 l 197 223 l 104 223 l 104 -123 m 197 918 l 104 918 l 104 570 l 197 570 l 197 918 "},"/":{"x_min":-24,"x_max":478,"ha":463,"o":"m -24 -23 l 75 -23 l 478 1015 l 378 1015 l -24 -23 "},"y":{"x_min":-86,"x_max":687,"ha":668,"o":"m 687 718 l 560 718 l 265 147 l 262 147 l 180 718 l 56 718 l 180 0 l 109 -119 b 1 -197 82 -165 52 -197 b -65 -177 -19 -197 -47 -188 l -86 -273 b -5 -291 -64 -284 -32 -291 b 221 -122 112 -291 164 -215 l 687 718 "},"≈":{"x_min":80,"x_max":719.71875,"ha":799,"o":"m 676 598 b 546 495 638 531 602 495 b 420 544 499 495 467 517 b 269 601 383 564 334 601 b 80 467 188 601 120 548 l 126 428 b 259 531 160 481 197 531 b 386 484 305 531 344 509 b 544 425 450 446 488 425 b 719 559 627 425 682 484 l 676 598 m 676 359 b 548 258 638 294 604 258 b 420 306 497 258 465 281 b 267 362 382 327 335 362 b 80 229 190 362 120 309 l 126 190 b 259 292 158 242 195 292 b 386 245 304 292 342 270 b 544 188 450 209 488 188 b 719 320 627 188 682 247 l 676 359 "},"Ž":{"x_min":-52,"x_max":880,"ha":849,"o":"m -52 0 l 719 0 l 742 111 l 122 111 l 856 879 l 880 992 l 171 992 l 143 881 l 700 881 l -28 110 l -52 0 m 758 1247 l 652 1247 l 526 1118 l 456 1247 l 353 1247 l 458 1049 l 575 1049 l 758 1247 "},"Á":{"x_min":-75,"x_max":827,"ha":926,"o":"m 557 875 l 560 875 l 632 409 l 297 409 l 557 875 m -75 0 l 69 0 l 239 298 l 648 298 l 693 0 l 827 0 l 651 991 l 510 991 l -75 0 m 516 1048 l 612 1048 l 797 1247 l 643 1247 l 516 1048 "},"g":{"x_min":-29.9375,"x_max":751.328125,"ha":797,"o":"m 144 291 b 393 630 144 423 231 630 b 573 443 514 630 573 555 b 317 98 573 298 491 98 b 144 291 201 98 144 188 m 751 718 l 642 718 l 620 586 l 617 586 l 617 588 b 394 734 597 679 496 734 b 28 291 166 734 28 504 b 292 -5 28 120 118 -5 b 511 104 381 -5 461 27 l 514 101 b 262 -187 477 -41 442 -187 b 85 -69 174 -187 92 -165 l -29 -69 b 250 -291 -25 -229 107 -291 b 570 -91 400 -291 510 -234 b 624 104 590 -41 608 30 l 751 718 "},"²":{"x_min":15.921875,"x_max":489.734375,"ha":463,"o":"m 167 779 b 299 908 171 854 217 904 b 397 820 360 908 397 876 b 271 680 397 750 325 715 l 184 625 b 15 388 70 551 15 500 l 418 388 l 432 465 l 118 465 b 258 577 124 502 199 544 l 344 627 b 489 825 423 672 489 733 b 307 984 489 923 410 984 b 74 779 167 984 86 902 l 167 779 "},"–":{"x_min":-31,"x_max":671,"ha":694,"o":"m -31 330 l 649 330 l 671 441 l -9 441 l -31 330 "},"ë":{"x_min":13.75,"x_max":673.890625,"ha":746,"o":"m 149 427 b 393 630 183 538 257 630 b 558 427 521 630 566 529 l 149 427 m 663 323 b 673 416 667 343 673 379 b 375 734 673 619 582 734 b 13 272 182 734 13 547 b 311 -16 13 147 79 -16 b 630 225 465 -16 593 66 l 514 225 b 311 87 481 136 412 87 b 129 261 217 87 129 150 b 133 323 129 281 130 302 l 663 323 m 480 822 l 601 822 l 630 966 l 509 966 l 480 822 m 258 822 l 379 822 l 408 966 l 287 966 l 258 822 "},"ƒ":{"x_min":-26,"x_max":697,"ha":772,"o":"m 204 623 l 179 529 l 308 529 l 159 -8 b 54 -125 145 -65 119 -116 b 2 -119 35 -126 16 -122 l -26 -222 b 50 -229 0 -225 24 -229 b 266 -47 172 -229 236 -166 l 427 529 l 578 529 l 603 623 l 451 623 l 484 744 b 615 887 513 848 529 887 b 669 879 633 887 653 886 l 697 980 b 608 991 668 986 638 991 b 396 851 505 991 424 954 l 333 623 l 204 623 "},"Î":{"x_min":10,"x_max":481,"ha":360,"o":"m 10 0 l 139 0 l 343 991 l 214 991 l 10 0 m 80 1048 l 192 1048 l 310 1178 l 380 1048 l 481 1048 l 378 1247 l 261 1247 l 80 1048 "},"e":{"x_min":13.75,"x_max":673.890625,"ha":746,"o":"m 149 427 b 393 630 183 538 257 630 b 558 427 521 630 566 529 l 149 427 m 663 323 b 673 416 667 343 673 379 b 375 734 673 619 582 734 b 13 272 182 734 13 547 b 311 -16 13 147 79 -16 b 630 225 465 -16 593 66 l 514 225 b 311 87 481 136 412 87 b 129 261 217 87 129 150 b 133 323 129 281 130 302 l 663 323 "},"Ã":{"x_min":-75,"x_max":827,"ha":926,"o":"m 557 874 l 560 874 l 632 409 l 297 409 l 557 874 m -75 0 l 69 0 l 239 298 l 648 298 l 693 0 l 827 0 l 651 991 l 510 991 l -75 0 m 432 1060 b 496 1117 443 1091 459 1117 b 584 1088 516 1117 549 1106 b 688 1053 620 1070 658 1053 b 827 1204 772 1053 805 1135 l 757 1204 b 688 1148 741 1173 729 1148 b 601 1177 665 1143 635 1163 b 496 1211 567 1193 531 1211 b 361 1060 417 1211 382 1125 l 432 1060 "},"J":{"x_min":-12.25,"x_max":714.578125,"ha":721,"o":"m 714 991 l 586 991 l 445 312 b 259 87 421 204 390 87 b 117 222 171 87 117 127 b 130 325 118 256 123 291 l 0 325 b -12 187 -9 272 -12 220 b 257 -23 -12 50 100 -23 b 560 244 451 -23 525 73 l 714 991 "},"»":{"x_min":37,"x_max":570.9375,"ha":643,"o":"m 136 614 l 110 495 l 229 370 l 65 276 l 37 158 l 274 297 l 304 424 l 136 614 m 403 614 l 377 495 l 496 370 l 332 276 l 304 158 l 540 297 l 570 424 l 403 614 "},"∆":{"x_min":-63,"x_max":751,"ha":900,"o":"m -63 0 l 734 0 l 751 76 l 608 990 l 480 990 l -46 75 l -63 0 m 67 91 l 380 627 b 510 862 420 702 486 811 l 515 862 b 550 605 519 798 542 679 l 635 91 l 67 91 "},"©":{"x_min":32.671875,"x_max":1056.21875,"ha":1111,"o":"m 32 498 b 545 -23 32 200 266 -23 b 1056 498 823 -23 1056 200 b 545 1015 1056 791 823 1015 b 32 498 266 1015 32 791 m 125 498 b 545 938 125 745 307 938 b 963 498 781 938 963 745 b 545 52 963 244 781 52 b 125 498 307 52 125 244 m 728 395 b 562 254 715 313 651 254 b 352 498 432 254 352 368 b 559 736 352 631 424 736 b 728 601 649 736 713 679 l 813 601 b 558 812 793 740 687 812 b 259 495 371 812 259 680 b 562 177 259 313 378 177 b 815 395 687 177 786 261 l 728 395 "},"˘":{"x_min":73.328125,"x_max":483.1875,"ha":308,"o":"m 73 1015 b 257 822 69 887 136 822 b 483 1015 375 822 466 891 l 421 1015 b 262 898 396 931 351 898 b 134 1015 182 898 136 930 l 73 1015 "},"≥":{"x_min":138.828125,"x_max":760.859375,"ha":847,"o":"m 145 831 l 145 745 l 684 483 l 684 480 l 145 218 l 145 133 l 759 444 l 759 519 l 145 831 m 760 4 l 760 76 l 138 76 l 138 4 l 760 4 "},"ò":{"x_min":23.140625,"x_max":709.140625,"ha":797,"o":"m 138 284 b 408 630 138 433 231 630 b 593 427 534 630 593 540 b 332 87 593 286 500 87 b 138 284 205 87 138 166 m 23 283 b 319 -16 23 109 134 -16 b 709 437 566 -16 709 202 b 416 734 709 629 604 734 b 23 283 170 734 23 518 m 446 1015 l 308 1015 l 446 816 l 537 816 l 446 1015 "},"^":{"x_min":68,"x_max":749,"ha":833,"o":"m 68 366 l 164 366 l 407 866 l 653 366 l 749 366 l 452 968 l 364 968 l 68 366 "},"«":{"x_min":41.0625,"x_max":575,"ha":643,"o":"m 208 158 l 234 276 l 115 401 l 279 495 l 308 614 l 71 474 l 41 347 l 208 158 m 475 158 l 501 276 l 382 401 l 546 495 l 575 614 l 337 474 l 308 347 l 475 158 "},"D":{"x_min":9.53125,"x_max":922.828125,"ha":978,"o":"m 9 0 l 382 0 b 922 612 703 0 922 238 b 555 991 922 847 797 991 l 215 991 l 9 0 m 318 880 l 525 880 b 793 598 740 880 793 744 b 383 111 793 358 658 111 l 159 111 l 318 880 "},"∙":{"x_min":91.1875,"x_max":265.421875,"ha":386,"o":"m 91 351 b 178 262 91 304 130 262 b 265 351 227 262 265 300 b 178 440 265 401 227 440 b 91 351 133 440 91 402 "},"ł":{"x_min":-10,"x_max":333,"ha":308,"o":"m 196 991 l 104 558 l 3 479 l -10 372 l 85 447 l -7 0 l 108 0 l 218 551 l 319 630 l 333 738 l 243 666 l 240 669 l 312 991 l 196 991 "},"ÿ":{"x_min":-86,"x_max":687,"ha":668,"o":"m 687 718 l 560 718 l 265 147 l 262 147 l 180 718 l 56 718 l 180 0 l 109 -119 b 1 -197 82 -165 52 -197 b -65 -177 -19 -197 -47 -188 l -86 -273 b -5 -291 -64 -284 -32 -291 b 221 -122 112 -291 164 -215 l 687 718 m 410 822 l 531 822 l 560 966 l 439 966 l 410 822 m 188 822 l 310 822 l 338 966 l 217 966 l 188 822 "},"Ł":{"x_min":-29,"x_max":676,"ha":772,"o":"m 9 0 l 652 0 l 676 110 l 162 110 l 225 419 l 526 606 l 549 722 l 248 533 l 342 991 l 213 991 l 100 440 l -5 373 l -29 259 l 77 326 l 9 0 "},"í":{"x_min":-6.875,"x_max":467,"ha":308,"o":"m 108 0 l 255 718 l 140 718 l -6 0 l 108 0 m 186 816 l 281 816 l 467 1015 l 313 1015 l 186 816 "},"ˆ":{"x_min":41,"x_max":441,"ha":308,"o":"m 41 817 l 152 817 l 270 947 l 340 817 l 441 817 l 338 1016 l 221 1016 l 41 817 "},"w":{"x_min":56,"x_max":1037,"ha":1054,"o":"m 1037 718 l 911 718 l 645 147 l 642 147 l 608 718 l 477 718 l 224 147 l 222 147 l 178 718 l 56 718 l 139 0 l 261 0 l 513 558 l 515 558 l 551 0 l 673 0 l 1037 718 "},"$":{"x_min":-14.109375,"x_max":730.203125,"ha":772,"o":"m 352 580 l 334 588 b 211 734 269 610 211 659 b 417 910 211 870 336 910 l 352 580 m 398 446 b 579 273 494 414 579 403 b 325 80 579 114 396 63 l 398 446 m 209 -135 l 281 -135 l 304 -24 b 702 285 484 -50 702 63 b 495 535 702 412 630 496 l 421 562 l 488 903 b 607 698 566 877 611 816 l 729 698 b 509 1006 739 870 638 970 l 528 1102 l 456 1102 l 438 1015 b 88 720 258 1033 88 909 b 329 463 88 559 198 505 l 255 89 b 108 324 149 112 102 192 l -13 324 b 234 -17 -21 135 62 12 l 209 -135 "},"∫":{"x_min":118.421875,"x_max":567.578125,"ha":601,"o":"m 567 1161 b 492 1180 552 1170 521 1180 b 362 1125 445 1180 396 1163 b 287 830 307 1068 287 983 b 306 129 287 609 306 359 b 261 -105 306 -9 287 -70 b 198 -136 245 -126 220 -136 b 137 -120 171 -136 148 -126 l 118 -201 b 209 -223 134 -211 172 -223 b 348 -150 264 -223 318 -201 b 405 129 379 -101 405 -16 b 387 819 405 356 387 602 b 432 1065 387 948 398 1023 b 500 1098 450 1088 477 1098 b 551 1083 518 1098 539 1091 l 567 1161 "},"\\":{"x_min":-24,"x_max":478.25,"ha":463,"o":"m 75 1015 l -24 1015 l 378 -23 l 478 -23 l 75 1015 "},"Ì":{"x_min":10,"x_max":372,"ha":360,"o":"m 10 0 l 139 0 l 343 991 l 214 991 l 10 0 m 280 1247 l 143 1247 l 280 1048 l 372 1048 l 280 1247 "},"µ":{"x_min":-76,"x_max":708,"ha":772,"o":"m 708 718 l 592 718 l 510 320 b 258 87 486 201 386 87 b 136 187 190 87 136 119 b 152 298 136 212 147 272 l 242 718 l 126 718 l -76 -275 l 39 -275 l 103 36 l 106 36 b 232 -16 121 13 169 -16 b 467 108 313 -16 408 27 l 469 108 l 448 0 l 559 0 l 708 718 "},"Ç":{"x_min":51.359375,"x_max":955.140625,"ha":1003,"o":"m 955 672 b 584 1015 955 901 794 1015 b 51 411 252 1015 51 731 b 403 -18 51 161 177 4 l 331 -106 l 357 -148 b 414 -137 375 -140 395 -137 b 477 -180 444 -137 477 -148 b 395 -222 477 -216 437 -222 b 308 -201 365 -222 337 -211 l 284 -261 b 417 -291 326 -280 371 -291 b 579 -170 491 -291 579 -255 b 455 -68 579 -97 518 -68 b 420 -73 443 -68 429 -70 l 417 -73 l 461 -23 l 467 -23 b 897 334 707 -23 848 112 l 768 334 b 467 87 726 180 627 87 b 180 411 273 87 180 219 b 584 904 180 650 314 904 b 825 672 726 904 825 827 l 955 672 "},"’":{"x_min":146,"x_max":372,"ha":386,"o":"m 188 837 l 264 837 b 159 700 248 775 231 711 l 146 633 b 372 991 336 650 336 836 l 220 991 l 188 837 "},"-":{"x_min":35,"x_max":452,"ha":540,"o":"m 35 330 l 430 330 l 452 441 l 56 441 l 35 330 "},"Q":{"x_min":52.03125,"x_max":991.203125,"ha":1054,"o":"m 902 -25 l 784 91 b 991 575 916 203 991 385 b 585 1014 991 821 837 1014 b 52 410 253 1014 52 731 b 468 -24 52 137 203 -24 b 694 30 552 -24 629 -4 l 829 -103 l 902 -25 m 518 202 l 607 116 b 468 87 566 96 520 87 b 181 410 273 87 181 219 b 585 903 181 649 314 903 b 861 575 765 903 861 759 b 699 174 861 425 807 268 l 592 281 l 518 202 "},"M":{"x_min":10,"x_max":1186,"ha":1208,"o":"m 10 0 l 133 0 l 304 868 l 306 868 l 433 0 l 557 0 l 1052 868 l 1055 868 l 856 0 l 980 0 l 1186 991 l 1006 991 l 525 138 l 523 138 l 393 991 l 214 991 l 10 0 "},"C":{"x_min":51.71875,"x_max":955.5,"ha":1003,"o":"m 769 334 b 468 87 726 180 627 87 b 181 411 273 87 181 219 b 585 904 181 650 314 904 b 826 672 726 904 826 827 l 955 672 b 585 1015 955 901 794 1015 b 51 411 253 1015 51 731 b 468 -23 51 137 202 -23 b 898 334 707 -23 849 112 l 769 334 "},"œ":{"x_min":23.140625,"x_max":1182.8125,"ha":1260,"o":"m 1022 226 b 820 87 990 145 913 87 b 642 250 711 87 642 140 b 651 323 642 276 646 301 l 1167 323 b 1182 450 1176 355 1182 416 b 910 734 1182 622 1094 734 b 651 594 807 734 702 690 b 415 734 613 705 522 734 b 23 265 171 734 23 493 b 306 -16 23 70 130 -16 b 556 125 406 -16 506 34 b 800 -16 600 13 690 -16 b 1140 226 965 -16 1087 65 l 1022 226 m 138 270 b 404 630 138 418 231 630 b 567 479 495 630 567 579 b 313 87 567 329 506 87 b 138 270 196 87 138 172 m 907 630 b 1067 468 1015 630 1067 552 b 1064 427 1067 454 1065 441 l 669 427 b 907 630 696 541 777 630 "},"!":{"x_min":0,"x_max":343,"ha":360,"o":"m 0 0 l 151 0 l 183 154 l 32 154 l 0 0 m 343 991 l 216 991 l 152 681 l 93 254 l 156 254 l 279 681 l 343 991 "},"ç":{"x_min":28.546875,"x_max":681.875,"ha":746,"o":"m 681 490 b 417 734 676 656 577 734 b 28 293 166 734 28 520 b 281 -13 28 113 112 0 l 206 -106 l 232 -148 b 289 -137 250 -140 270 -137 b 352 -180 319 -137 352 -148 b 270 -222 352 -216 313 -222 b 183 -201 240 -222 212 -211 l 159 -261 b 292 -291 201 -280 246 -291 b 454 -170 366 -291 454 -255 b 330 -68 454 -97 393 -68 b 295 -73 318 -68 304 -70 l 292 -73 l 342 -15 b 639 234 492 -6 601 83 l 524 234 b 318 87 491 147 417 87 b 144 293 189 87 144 181 b 417 630 144 450 239 630 b 566 490 507 630 566 577 l 681 490 "},"È":{"x_min":10,"x_max":885,"ha":849,"o":"m 10 0 l 686 0 l 710 111 l 163 111 l 234 454 l 739 454 l 761 565 l 257 565 l 322 880 l 863 880 l 885 991 l 215 991 l 10 0 m 547 1247 l 410 1247 l 547 1048 l 638 1048 l 547 1247 "},"ﬁ":{"x_min":31,"x_max":717,"ha":721,"o":"m 397 0 l 512 0 l 659 717 l 544 717 l 397 0 m 717 991 l 599 991 l 570 846 l 687 846 l 717 991 m 31 0 l 146 0 l 276 613 l 412 613 l 431 717 l 296 717 b 432 898 323 805 316 898 b 486 891 450 898 469 895 l 506 991 b 409 1002 474 999 442 1002 b 182 717 224 1002 218 863 l 62 717 l 41 613 l 161 613 l 31 0 "},"{":{"x_min":41.328125,"x_max":538.125,"ha":463,"o":"m 538 1015 l 442 1015 b 259 833 374 1015 282 951 l 207 580 b 61 416 186 480 118 416 l 41 322 b 127 216 87 322 127 280 b 121 159 127 200 125 180 l 69 -93 b 64 -150 65 -113 64 -133 b 180 -275 64 -231 124 -275 l 275 -275 l 293 -191 l 225 -191 b 180 -116 186 -191 180 -158 b 184 -69 180 -101 181 -84 l 234 181 b 242 234 238 201 242 218 b 154 368 242 333 180 363 l 155 372 b 312 558 188 380 284 427 l 362 809 b 452 931 374 869 399 931 l 520 931 l 538 1015 "},"X":{"x_min":-60,"x_max":904,"ha":849,"o":"m -60 0 l 88 0 l 420 419 l 616 0 l 750 0 l 503 500 l 904 991 l 758 991 l 446 600 l 266 991 l 127 991 l 362 518 l -60 0 "},"ô":{"x_min":22.828125,"x_max":708.828125,"ha":797,"o":"m 138 285 b 408 631 138 434 231 631 b 593 428 534 631 593 541 b 331 88 593 287 500 88 b 138 285 205 88 138 167 m 22 284 b 319 -15 22 110 134 -15 b 708 438 565 -15 708 203 b 416 735 708 630 604 735 b 22 284 169 735 22 519 m 246 817 l 357 817 l 476 947 l 545 817 l 646 817 l 544 1016 l 427 1016 l 246 817 "},"¼":{"x_min":108,"x_max":1021,"ha":1158,"o":"m 801 0 l 887 0 l 917 133 l 999 133 l 1016 209 l 933 209 l 1021 596 l 942 596 l 576 214 l 561 133 l 831 133 l 801 0 m 656 209 l 898 461 l 901 461 l 845 209 l 656 209 m 389 984 l 325 984 b 120 886 295 932 216 886 l 108 816 b 267 840 171 816 214 822 l 177 389 l 267 389 l 389 984 m 169 -38 l 256 -38 l 848 1007 l 761 1007 l 169 -38 "},"#":{"x_min":46,"x_max":710,"ha":772,"o":"m 138 0 l 232 0 l 271 286 l 439 286 l 399 0 l 493 0 l 533 286 l 659 286 l 671 380 l 545 380 l 573 588 l 697 588 l 710 683 l 586 683 l 625 968 l 531 968 l 492 683 l 326 683 l 365 968 l 271 968 l 232 683 l 93 683 l 81 588 l 218 588 l 190 380 l 58 380 l 46 286 l 177 286 l 138 0 m 480 588 l 451 380 l 285 380 l 314 588 l 480 588 "},"Ê":{"x_min":10,"x_max":885,"ha":849,"o":"m 10 0 l 686 0 l 710 111 l 163 111 l 234 454 l 739 454 l 761 565 l 257 565 l 322 880 l 863 880 l 885 991 l 215 991 l 10 0 m 347 1048 l 459 1048 l 577 1178 l 646 1048 l 747 1048 l 645 1247 l 528 1247 l 347 1048 "},")":{"x_min":-159.25,"x_max":287.1875,"ha":360,"o":"m -63 -275 b 287 502 136 -45 287 187 b 176 1015 287 666 240 865 l 100 1015 b 171 552 151 866 171 709 b -159 -275 171 233 39 -36 l -63 -275 "},"Å":{"x_min":-74.859375,"x_max":827.5625,"ha":926,"o":"m 558 875 l 560 875 l 632 409 l 298 409 l 558 875 m -74 0 l 69 0 l 239 298 l 649 298 l 694 0 l 827 0 l 651 991 l 510 991 l -74 0 m 509 1172 b 601 1266 509 1225 549 1266 b 694 1172 653 1266 694 1225 b 601 1077 694 1119 653 1077 b 509 1172 549 1077 509 1119 m 447 1172 b 601 1015 447 1086 517 1015 b 755 1172 686 1015 755 1086 b 601 1329 755 1258 686 1329 b 447 1172 517 1329 447 1258 "},"ø":{"x_min":-41.078125,"x_max":770.140625,"ha":797,"o":"m 578 519 b 593 427 589 491 593 461 b 331 87 593 285 500 87 b 176 149 259 87 208 112 l 578 519 m 153 196 l 152 196 b 138 284 142 221 138 252 b 408 630 138 433 231 630 b 555 568 476 630 525 604 l 153 196 m -41 17 l -8 -21 l 93 73 b 319 -16 142 15 220 -16 b 708 437 565 -16 708 202 b 670 604 708 504 695 561 l 770 696 l 736 735 l 640 647 b 416 735 593 704 516 735 b 22 283 169 735 22 518 b 63 114 22 217 36 160 l -41 17 "},"â":{"x_min":-12.953125,"x_max":634.953125,"ha":721,"o":"m 102 187 b 259 318 102 279 176 305 b 485 366 343 329 434 336 l 487 366 b 426 181 471 299 464 235 b 229 87 385 117 319 87 b 102 187 164 87 102 120 m 188 501 b 377 631 202 594 289 631 b 519 536 438 631 519 614 b 342 422 519 440 464 433 b -12 185 187 408 -12 394 b 202 -17 -12 38 85 -17 b 437 87 320 -17 388 20 l 440 84 b 531 -17 433 21 467 -17 b 602 0 551 -17 584 -10 l 619 87 b 583 77 609 82 594 77 b 549 121 564 77 549 88 b 568 224 549 155 562 195 l 613 420 b 634 551 621 459 634 511 b 377 735 634 697 513 735 b 72 501 227 735 95 661 l 188 501 m 210 817 l 321 817 l 440 947 l 509 817 l 610 817 l 508 1016 l 391 1016 l 210 817 "},"}":{"x_min":-123.125,"x_max":373.671875,"ha":463,"o":"m -123 -275 l -27 -275 b 155 -93 40 -275 132 -211 l 207 159 b 353 322 228 256 296 322 l 373 416 b 287 523 327 416 287 456 b 293 580 287 540 289 559 l 345 833 b 350 890 349 854 350 873 b 234 1015 350 972 290 1015 l 139 1015 l 121 931 l 189 931 b 234 856 228 931 234 898 b 230 809 234 841 233 825 l 180 558 b 172 505 176 538 172 522 b 260 372 172 406 234 376 l 259 368 b 102 181 226 359 130 312 l 52 -69 b -37 -191 40 -129 15 -191 l -105 -191 l -123 -275 "},"‰":{"x_min":65.375,"x_max":1383.96875,"ha":1492,"o":"m 983 176 b 1149 -16 983 65 1027 -16 b 1383 279 1311 -16 1383 136 b 1220 465 1383 388 1333 465 b 983 176 1061 465 983 325 m 1076 176 b 1212 388 1072 261 1122 388 b 1291 272 1268 388 1291 329 b 1155 59 1295 187 1245 59 b 1076 176 1099 59 1076 119 m 65 695 b 231 502 65 584 108 502 b 465 798 393 502 465 655 b 302 984 465 908 415 984 b 65 695 142 984 65 844 m 157 695 b 293 908 153 780 204 908 b 372 791 349 908 372 848 b 236 579 376 706 326 579 b 157 695 181 579 157 638 m 507 176 b 673 -16 507 65 551 -16 b 907 279 835 -16 907 136 b 744 465 907 388 857 465 b 507 176 585 465 507 325 m 600 176 b 736 388 596 261 646 388 b 815 272 791 388 815 329 b 678 59 819 187 768 59 b 600 176 623 59 600 119 m 141 -38 l 228 -38 l 820 1006 l 733 1006 l 141 -38 "},"Ä":{"x_min":-75,"x_max":827,"ha":926,"o":"m 557 875 l 560 875 l 632 409 l 297 409 l 557 875 m -75 0 l 69 0 l 239 298 l 648 298 l 693 0 l 827 0 l 651 991 l 510 991 l -75 0 m 629 1054 l 750 1054 l 779 1198 l 658 1198 l 629 1054 m 407 1054 l 529 1054 l 557 1198 l 436 1198 l 407 1054 "},"¸":{"x_min":-56.28125,"x_max":239.078125,"ha":308,"o":"m -56 -261 b 77 -291 -14 -280 30 -291 b 239 -170 150 -291 239 -255 b 115 -68 239 -97 177 -68 b 79 -73 102 -68 89 -70 l 77 -73 l 156 18 l 92 18 l -8 -106 l 17 -148 b 74 -137 34 -140 55 -137 b 136 -180 104 -137 136 -148 b 55 -222 136 -216 97 -222 b -31 -201 25 -222 -3 -211 l -56 -261 "},"a":{"x_min":-12.9375,"x_max":634.953125,"ha":721,"o":"m 102 187 b 259 317 102 278 176 305 b 485 366 343 328 434 335 l 487 366 b 426 181 471 299 464 235 b 229 87 385 117 319 87 b 102 187 164 87 102 120 m 188 500 b 377 630 202 593 289 630 b 519 535 438 630 519 613 b 342 421 519 439 464 432 b -12 185 187 407 -12 393 b 202 -17 -12 38 85 -17 b 437 87 320 -17 388 20 l 440 84 b 531 -17 433 21 467 -17 b 602 0 551 -17 584 -10 l 619 87 b 583 77 609 82 594 77 b 549 121 564 77 549 88 b 568 224 549 155 562 195 l 613 420 b 634 550 621 459 634 510 b 377 734 634 696 513 734 b 72 500 227 734 95 660 l 188 500 "},"—":{"x_min":146,"x_max":1175,"ha":1389,"o":"m 146 330 l 1153 330 l 1175 441 l 167 441 l 146 330 "},"=":{"x_min":65.328125,"x_max":751.328125,"ha":833,"o":"m 751 538 l 65 538 l 65 444 l 751 444 l 751 538 m 65 163 l 751 163 l 751 258 l 65 258 l 65 163 "},"N":{"x_min":10,"x_max":991,"ha":1003,"o":"m 10 0 l 135 0 l 299 815 l 302 815 l 646 0 l 785 0 l 991 991 l 865 991 l 703 170 l 701 170 l 354 991 l 215 991 l 10 0 "},"˚":{"x_min":117.0625,"x_max":424.671875,"ha":308,"o":"m 178 919 b 270 1013 178 972 219 1013 b 363 919 322 1013 363 972 b 270 825 363 866 322 825 b 178 919 219 825 178 866 m 117 919 b 270 762 117 833 186 762 b 424 919 355 762 424 833 b 270 1076 424 1005 355 1076 b 117 919 186 1076 117 1005 "},"ú":{"x_min":20.421875,"x_max":707.78125,"ha":772,"o":"m 707 718 l 592 718 l 510 320 b 258 87 485 201 386 87 b 136 187 190 87 136 119 b 152 298 136 212 147 272 l 242 718 l 126 718 l 40 308 b 20 168 28 252 20 198 b 216 -16 20 41 84 -16 b 466 108 313 -16 408 27 l 469 108 l 447 0 l 559 0 l 707 718 m 340 816 l 435 816 l 620 1015 l 466 1015 l 340 816 "},"⁄":{"x_min":-226,"x_max":453,"ha":232,"o":"m -226 -38 l -138 -38 l 453 1006 l 365 1006 l -226 -38 "},"2":{"x_min":-7.578125,"x_max":710.671875,"ha":772,"o":"m 215 650 b 426 880 222 773 297 880 b 588 715 525 880 588 818 b 463 506 588 618 533 561 b -7 0 272 361 15 298 l 607 0 l 629 104 l 127 104 b 284 273 151 175 225 234 b 710 722 449 380 710 481 b 439 984 710 886 595 984 b 93 650 233 984 113 852 l 215 650 "},"ü":{"x_min":20.421875,"x_max":707.78125,"ha":772,"o":"m 707 718 l 592 718 l 510 320 b 258 87 485 201 386 87 b 136 187 190 87 136 119 b 152 298 136 212 147 272 l 242 718 l 126 718 l 40 308 b 20 168 28 252 20 198 b 216 -16 20 41 84 -16 b 466 108 313 -16 408 27 l 469 108 l 447 0 l 559 0 l 707 718 m 453 822 l 574 822 l 602 966 l 481 966 l 453 822 m 231 822 l 352 822 l 381 966 l 259 966 l 231 822 "},"¯":{"x_min":72,"x_max":454,"ha":308,"o":"m 72 861 l 439 861 l 454 937 l 88 937 l 72 861 "},"Z":{"x_min":-52,"x_max":880,"ha":849,"o":"m -52 0 l 719 0 l 742 111 l 122 111 l 856 879 l 880 991 l 171 991 l 143 880 l 700 880 l -28 109 l -52 0 "},"u":{"x_min":20.421875,"x_max":707.78125,"ha":772,"o":"m 707 718 l 592 718 l 510 320 b 258 87 485 201 386 87 b 136 187 190 87 136 119 b 152 298 136 212 147 272 l 242 718 l 126 718 l 40 308 b 20 168 28 252 20 198 b 216 -16 20 41 84 -16 b 466 108 313 -16 408 27 l 469 108 l 447 0 l 559 0 l 707 718 "},"˜":{"x_min":31.5,"x_max":497,"ha":308,"o":"m 102 828 b 166 885 113 859 129 885 b 254 856 186 885 219 874 b 358 821 290 838 328 821 b 497 972 442 821 475 903 l 427 972 b 358 916 411 941 399 916 b 271 945 335 911 305 931 b 166 979 237 961 201 979 b 31 828 87 979 51 893 l 102 828 "},"Ó":{"x_min":51.71875,"x_max":990.890625,"ha":1054,"o":"m 51 411 b 468 -23 51 137 202 -23 b 990 576 792 -23 990 265 b 585 1015 990 822 837 1015 b 51 411 253 1015 51 731 m 181 411 b 585 904 181 650 314 904 b 861 576 764 904 861 759 b 468 87 861 340 725 87 b 181 411 273 87 181 219 m 552 1048 l 647 1048 l 833 1247 l 679 1247 l 552 1048 "},"k":{"x_min":-7,"x_max":699,"ha":668,"o":"m -7 0 l 108 0 l 161 255 l 300 382 l 437 0 l 567 0 l 392 452 l 699 718 l 548 718 l 194 405 l 191 408 l 312 991 l 198 991 l -7 0 "},"ˇ":{"x_min":88,"x_max":494,"ha":308,"o":"m 494 1015 l 387 1015 l 261 886 l 191 1015 l 88 1015 l 192 817 l 310 817 l 494 1015 "},"Ù":{"x_min":77.28125,"x_max":991.40625,"ha":1003,"o":"m 991 991 l 862 991 l 739 397 b 442 87 701 211 655 87 b 212 375 255 87 169 183 l 340 991 l 211 991 l 90 408 b 442 -23 34 131 158 -23 b 821 206 607 -23 755 43 b 870 397 837 245 853 320 l 991 991 m 595 1247 l 457 1247 l 595 1048 l 686 1048 l 595 1247 "},"Ÿ":{"x_min":90,"x_max":945,"ha":849,"o":"m 262 0 l 389 0 l 473 398 l 945 991 l 795 991 l 426 511 l 227 991 l 90 991 l 345 398 l 262 0 m 565 1054 l 686 1054 l 714 1198 l 593 1198 l 565 1054 m 343 1054 l 464 1054 l 493 1198 l 371 1198 l 343 1054 "},"€":{"x_min":-8.328125,"x_max":797.46875,"ha":772,"o":"m 797 916 b 556 1000 721 972 649 1000 b 130 625 334 1000 189 829 l 65 625 l 20 543 l 111 543 l 100 463 l 36 463 l -8 381 l 97 381 b 447 -23 101 158 210 -23 b 685 44 538 -23 608 -1 l 714 184 b 462 83 634 127 564 83 b 209 381 281 83 216 216 l 572 381 l 619 463 l 212 463 l 224 543 l 643 543 l 689 625 l 247 625 b 551 890 297 765 391 890 b 740 812 627 890 684 861 l 797 916 "},"¢":{"x_min":42.1875,"x_max":695.53125,"ha":772,"o":"m 157 293 b 411 637 157 451 246 625 l 296 84 b 157 293 194 98 157 186 m 537 234 b 348 80 506 145 439 87 l 462 634 b 579 490 534 623 579 573 l 695 490 b 483 731 695 637 612 715 l 510 861 l 457 861 l 431 734 b 42 293 194 734 42 520 b 276 -12 42 120 121 8 l 245 -161 l 298 -161 l 328 -16 b 653 234 494 -16 612 75 l 537 234 "},"Ω":{"x_min":-39.453125,"x_max":908.46875,"ha":997,"o":"m 179 91 l -20 91 l -39 0 l 289 0 l 304 68 b 194 501 216 133 151 295 b 570 886 239 716 390 886 b 781 505 760 886 817 686 b 488 68 734 284 605 136 l 474 0 l 805 0 l 824 91 l 621 91 l 621 95 b 896 526 730 175 854 327 b 592 980 945 761 838 980 b 87 520 357 980 142 788 b 181 95 47 329 103 181 l 179 91 "},"ß":{"x_min":-6.8125,"x_max":699.609375,"ha":746,"o":"m -6 0 l 110 0 l 253 690 b 450 911 274 798 313 911 b 583 783 511 911 583 868 b 336 593 583 641 458 584 l 315 495 b 534 334 434 498 534 477 b 272 87 534 176 417 87 b 231 90 258 87 245 87 l 212 -9 b 311 -16 245 -15 277 -16 b 650 344 506 -16 650 150 b 496 548 650 444 597 533 l 496 551 b 699 806 613 565 699 675 b 445 1015 699 959 577 1015 b 138 700 255 1015 174 887 l -6 0 "},"é":{"x_min":13.75,"x_max":673.9375,"ha":746,"o":"m 149 427 b 393 630 183 538 257 630 b 558 427 521 630 566 529 l 149 427 m 663 323 b 673 416 667 343 673 379 b 375 734 673 619 582 734 b 13 272 182 734 13 547 b 311 -16 13 147 79 -16 b 630 225 465 -16 593 66 l 514 225 b 311 87 481 136 412 87 b 129 261 217 87 129 150 b 133 323 129 281 130 302 l 663 323 m 367 816 l 462 816 l 648 1015 l 494 1015 l 367 816 "},"s":{"x_min":-12.265625,"x_max":598.890625,"ha":668,"o":"m 598 506 b 333 734 598 675 464 734 b 72 527 202 734 72 661 b 258 333 72 419 164 370 b 443 197 351 294 443 266 b 283 87 443 115 357 87 b 103 226 186 87 98 119 l -12 226 b 272 -16 -13 43 111 -16 b 559 205 408 -16 559 45 b 372 406 559 318 465 368 b 187 538 280 445 187 472 b 337 630 187 611 266 630 b 483 506 417 630 488 588 l 598 506 "},"B":{"x_min":9.53125,"x_max":873.828125,"ha":951,"o":"m 227 454 l 504 454 b 705 306 611 454 705 433 b 469 111 705 126 533 111 l 156 111 l 227 454 m 9 0 l 490 0 b 834 306 681 0 834 116 b 688 512 834 412 777 486 l 688 515 b 873 754 803 533 873 644 b 602 991 873 904 793 991 l 212 991 l 9 0 m 314 880 l 553 880 b 744 754 634 880 744 870 b 537 565 744 630 672 565 l 249 565 l 314 880 "},"…":{"x_min":53,"x_max":1144,"ha":1389,"o":"m 53 0 l 204 0 l 237 154 l 85 154 l 53 0 m 506 0 l 657 0 l 690 154 l 538 154 l 506 0 m 960 0 l 1111 0 l 1144 154 l 992 154 l 960 0 "},"?":{"x_min":117.203125,"x_max":728.34375,"ha":772,"o":"m 232 677 b 449 898 243 801 320 898 b 605 752 540 898 605 851 b 476 558 605 665 540 604 b 334 433 413 513 367 477 b 266 254 294 380 277 318 l 379 254 l 385 284 b 728 773 430 493 728 487 b 446 1002 728 930 582 1002 b 117 677 260 1002 129 863 l 232 677 m 197 0 l 348 0 l 381 154 l 230 154 l 197 0 "},"H":{"x_min":10,"x_max":982,"ha":1003,"o":"m 10 0 l 139 0 l 233 454 l 742 454 l 648 0 l 777 0 l 982 991 l 852 991 l 765 565 l 256 565 l 344 991 l 214 991 l 10 0 "},"î":{"x_min":-7.015625,"x_max":427,"ha":308,"o":"m 108 1 l 255 719 l 139 719 l -7 1 l 108 1 m 27 817 l 138 817 l 256 947 l 326 817 l 427 817 l 324 1016 l 207 1016 l 27 817 "},"c":{"x_min":28.546875,"x_max":681.875,"ha":746,"o":"m 681 490 b 417 734 676 656 577 734 b 28 293 166 734 28 520 b 318 -16 28 100 126 -16 b 639 234 480 -16 598 75 l 524 234 b 318 87 491 147 417 87 b 144 293 189 87 144 181 b 417 630 144 450 239 630 b 566 490 507 630 566 577 l 681 490 "},"¶":{"x_min":94.0625,"x_max":787,"ha":833,"o":"m 193 -215 l 281 -215 l 511 915 l 683 915 l 453 -215 l 540 -215 l 787 991 l 462 991 b 99 725 272 991 136 905 b 332 466 69 580 164 466 l 193 -215 "},"−":{"x_min":65.328125,"x_max":751.328125,"ha":833,"o":"m 65 304 l 751 304 l 751 398 l 65 398 l 65 304 "},"≠":{"x_min":114.0625,"x_max":738.9375,"ha":824,"o":"m 589 699 l 533 724 l 462 564 l 114 564 l 114 493 l 433 493 l 344 292 l 114 292 l 114 221 l 315 221 l 254 83 l 310 57 l 382 221 l 738 221 l 738 292 l 410 292 l 500 493 l 738 493 l 738 564 l 529 564 l 589 699 "},"•":{"x_min":98,"x_max":583.921875,"ha":694,"o":"m 98 495 b 340 247 98 358 205 247 b 583 495 475 247 583 358 b 340 743 583 633 475 743 b 98 495 205 743 98 633 "},"¥":{"x_min":83,"x_max":866,"ha":772,"o":"m 231 0 l 352 0 l 401 241 l 600 241 l 619 325 l 419 325 l 431 383 l 464 429 l 639 429 l 657 512 l 526 512 l 866 991 l 718 991 l 393 513 l 255 991 l 122 991 l 272 512 l 140 512 l 121 429 l 298 429 l 309 397 l 298 325 l 102 325 l 83 241 l 280 241 l 231 0 "},"(":{"x_min":47.640625,"x_max":494.078125,"ha":360,"o":"m 234 -275 b 163 186 183 -126 163 29 b 494 1015 163 505 296 775 l 398 1015 b 47 236 198 784 47 551 b 157 -275 47 75 93 -129 l 234 -275 "},"U":{"x_min":77.28125,"x_max":991.40625,"ha":1003,"o":"m 991 991 l 862 991 l 739 397 b 442 87 701 211 655 87 b 212 375 255 87 169 183 l 340 991 l 211 991 l 90 408 b 442 -23 34 131 158 -23 b 821 206 607 -23 755 43 b 870 397 837 245 853 320 l 991 991 "},"◊":{"x_min":173,"x_max":806,"ha":896,"o":"m 806 481 l 536 1027 l 446 1027 l 173 481 l 443 -63 l 532 -63 l 806 481 m 706 479 l 516 98 b 492 29 507 80 496 47 l 487 29 b 464 100 483 45 475 72 l 272 484 l 461 859 b 487 933 472 886 482 911 l 491 933 b 517 859 496 913 506 883 l 706 479 "},"Ñ":{"x_min":10,"x_max":991,"ha":1003,"o":"m 10 0 l 135 0 l 299 814 l 302 814 l 646 0 l 785 0 l 991 991 l 865 991 l 703 170 l 701 170 l 354 991 l 215 991 l 10 0 m 469 1060 b 533 1117 480 1091 497 1117 b 622 1088 554 1117 586 1106 b 725 1053 657 1070 695 1053 b 864 1204 810 1053 842 1135 l 795 1204 b 725 1148 778 1173 766 1148 b 638 1177 702 1143 672 1163 b 533 1211 604 1193 569 1211 b 399 1060 454 1211 419 1125 l 469 1060 "},"F":{"x_min":10,"x_max":853,"ha":797,"o":"m 10 0 l 139 0 l 231 454 l 681 454 l 704 565 l 255 565 l 319 880 l 829 880 l 853 991 l 212 991 l 10 0 "},"­":{"x_min":35,"x_max":452,"ha":540,"o":"m 35 330 l 430 330 l 452 441 l 56 441 l 35 330 "},":":{"x_min":20,"x_max":318,"ha":386,"o":"m 20 0 l 172 0 l 203 154 l 49 154 l 20 0 m 318 718 l 165 718 l 134 563 l 286 563 l 318 718 "},"Û":{"x_min":77.28125,"x_max":991.40625,"ha":1003,"o":"m 991 991 l 862 991 l 739 397 b 442 87 701 211 655 87 b 212 375 255 87 169 183 l 340 991 l 211 991 l 90 408 b 442 -23 34 132 158 -23 b 821 207 607 -23 755 43 b 870 397 837 246 853 321 l 991 991 m 395 1048 l 506 1048 l 625 1178 l 694 1048 l 795 1048 l 693 1247 l 576 1247 l 395 1048 "},"*":{"x_min":102,"x_max":493,"ha":489,"o":"m 370 991 l 296 991 l 266 845 l 136 913 l 102 850 l 231 783 l 126 666 l 176 615 l 283 736 l 347 593 l 413 625 l 347 763 l 493 783 l 486 850 l 336 834 l 370 991 "},"†":{"x_min":86,"x_max":743,"ha":772,"o":"m 174 -215 l 290 -215 l 461 613 l 721 613 l 743 718 l 483 718 l 540 991 l 424 991 l 367 718 l 107 718 l 86 613 l 345 613 l 174 -215 "},"∕":{"x_min":-226,"x_max":453,"ha":232,"o":"m -226 -38 l -138 -38 l 453 1006 l 365 1006 l -226 -38 "},"°":{"x_min":104.8125,"x_max":507.6875,"ha":556,"o":"m 104 779 b 306 573 104 665 194 573 b 507 779 417 573 507 665 b 306 984 507 893 417 984 b 104 779 194 984 104 893 m 172 779 b 306 915 172 855 231 915 b 439 779 381 915 439 855 b 306 643 439 702 381 643 b 172 779 231 643 172 702 "},"V":{"x_min":108,"x_max":941,"ha":849,"o":"m 941 991 l 803 991 l 342 129 l 339 129 l 240 991 l 108 991 l 246 0 l 392 0 l 941 991 "},"å":{"x_min":-12.9375,"x_max":634.953125,"ha":721,"o":"m 188 500 b 377 630 202 593 289 630 b 519 535 438 630 519 613 b 342 421 519 439 464 432 b -12 185 187 407 -12 393 b 202 -17 -12 38 85 -17 b 437 87 320 -17 388 20 l 440 84 b 531 -17 433 21 467 -17 b 602 0 551 -17 584 -10 l 619 87 b 583 77 609 82 594 77 b 549 121 564 77 549 88 b 568 224 549 155 562 195 l 613 420 b 634 550 621 459 634 510 b 377 734 634 696 513 734 b 72 500 227 734 95 660 l 188 500 m 334 918 b 426 1013 334 971 374 1013 b 519 918 478 1013 519 971 b 426 824 519 866 478 824 b 334 918 374 824 334 866 m 102 187 b 259 317 102 278 176 305 b 485 366 343 328 434 335 l 487 366 b 426 181 471 299 464 235 b 229 87 385 117 319 87 b 102 187 164 87 102 120 m 272 918 b 426 762 272 832 342 762 b 580 918 511 762 580 832 b 426 1075 580 1005 511 1075 b 272 918 342 1075 272 1005 "}," ":{"x_min":0,"x_max":0,"ha":386},"0":{"x_min":33.671875,"x_max":715.578125,"ha":772,"o":"m 33 365 b 300 -16 33 152 97 -16 b 715 612 618 -16 715 431 b 455 984 715 876 624 984 b 33 365 153 984 33 587 m 156 345 b 446 880 156 484 236 880 b 593 579 612 880 593 688 b 312 87 593 491 527 87 b 156 345 198 87 156 188 "},"”":{"x_min":116,"x_max":590,"ha":592,"o":"m 158 837 l 234 837 b 129 700 218 775 201 711 l 116 633 b 342 991 306 650 306 836 l 190 991 l 158 837 m 406 837 l 482 837 b 377 700 466 775 449 711 l 363 633 b 590 991 554 650 554 836 l 438 991 l 406 837 "},"¾":{"x_min":22.828125,"x_max":1072.5625,"ha":1158,"o":"m 853 0 l 939 0 l 969 133 l 1050 133 l 1068 209 l 985 209 l 1072 595 l 993 595 l 627 213 l 612 133 l 883 133 l 853 0 m 896 209 l 707 209 l 950 461 l 952 461 l 896 209 m 217 662 b 367 573 291 666 367 663 b 228 455 367 495 308 455 b 115 573 127 455 112 508 l 23 573 b 225 379 17 451 83 379 b 460 572 377 379 460 479 b 371 695 460 629 431 675 l 371 698 b 491 834 441 715 491 769 b 302 984 491 936 404 984 b 84 800 174 984 89 906 l 176 800 b 298 908 179 863 227 908 b 398 833 353 908 398 893 b 230 731 398 740 307 726 l 217 662 m 270 -38 l 357 -38 l 950 1006 l 862 1006 l 270 -38 "},"@":{"x_min":57.09375,"x_max":1024.859375,"ha":1111,"o":"m 571 701 b 681 572 628 701 681 638 b 470 276 681 458 589 276 b 353 411 402 276 353 333 b 571 701 353 531 443 701 m 841 769 l 755 769 l 724 681 b 571 795 692 765 634 795 b 251 401 379 795 251 594 b 446 181 251 279 330 181 b 615 275 513 181 574 226 l 619 275 b 706 184 621 213 660 184 b 1024 587 834 184 1024 345 b 562 1015 1024 837 813 1015 b 57 500 285 1015 57 786 b 567 -23 57 206 280 -23 b 993 220 741 -23 906 68 l 907 220 b 570 52 831 119 699 52 b 149 493 341 52 149 245 b 563 938 149 736 330 938 b 932 580 753 938 932 800 b 744 261 932 431 827 261 b 711 304 721 261 711 279 b 726 375 711 325 719 351 l 841 769 "},"ö":{"x_min":22.84375,"x_max":708.84375,"ha":797,"o":"m 138 284 b 408 630 138 433 231 630 b 593 427 534 630 593 540 b 331 87 593 286 500 87 b 138 284 205 87 138 166 m 22 283 b 319 -16 22 109 134 -16 b 708 437 565 -16 708 202 b 416 734 708 629 604 734 b 22 283 169 734 22 518 m 504 822 l 625 822 l 654 966 l 533 966 l 504 822 m 282 822 l 403 822 l 432 966 l 311 966 l 282 822 "},"i":{"x_min":-7,"x_max":313,"ha":308,"o":"m -7 0 l 108 0 l 255 718 l 140 718 l -7 0 m 313 991 l 195 991 l 165 847 l 283 847 l 313 991 "},"≤":{"x_min":137.46875,"x_max":762.21875,"ha":847,"o":"m 758 133 l 758 218 l 219 481 l 219 484 l 758 745 l 758 831 l 144 519 l 144 444 l 758 133 m 762 4 l 762 76 l 137 76 l 137 4 l 762 4 "},"Õ":{"x_min":52.140625,"x_max":991.296875,"ha":1054,"o":"m 52 410 b 468 -24 52 136 203 -24 b 991 575 792 -24 991 264 b 585 1014 991 821 837 1014 b 52 410 253 1014 52 731 m 181 410 b 585 903 181 649 314 903 b 862 575 765 903 862 759 b 468 86 862 339 725 86 b 181 410 274 86 181 218 m 468 1060 b 532 1117 479 1091 495 1117 b 621 1088 553 1117 585 1106 b 724 1053 656 1070 694 1053 b 863 1204 808 1053 841 1135 l 793 1204 b 724 1148 777 1173 765 1148 b 637 1177 701 1143 671 1163 b 532 1211 603 1193 568 1211 b 397 1060 453 1211 418 1125 l 468 1060 "},"þ":{"x_min":-66.6875,"x_max":735,"ha":824,"o":"m 619 440 b 340 87 619 281 524 87 b 163 273 225 87 163 166 b 438 630 163 423 262 630 b 619 440 564 630 619 556 m -66 -275 l 47 -275 l 122 109 l 125 109 b 344 -16 152 13 258 -16 b 735 440 590 -16 735 222 b 458 734 735 615 638 734 b 225 615 364 734 295 708 l 223 615 l 308 991 l 193 991 l -66 -275 "},"]":{"x_min":-174,"x_max":345,"ha":360,"o":"m 345 1015 l 87 1015 l 68 925 l 215 925 l -7 -184 l -154 -184 l -174 -275 l 83 -275 l 345 1015 "},"m":{"x_min":-6.8125,"x_max":1086.171875,"ha":1183,"o":"m -6 0 l 108 0 l 187 376 b 262 538 202 447 213 490 b 435 630 303 586 371 630 b 533 536 498 630 533 595 b 511 409 533 519 524 465 l 427 0 l 543 0 l 620 370 b 686 531 632 431 647 490 b 862 630 725 583 797 630 b 970 533 924 630 970 588 b 959 455 970 512 965 477 l 861 0 l 977 0 l 1065 430 b 1086 573 1075 470 1086 531 b 890 734 1086 690 989 734 b 649 605 796 734 703 681 b 472 734 628 698 560 734 b 227 608 375 734 287 683 l 224 611 l 250 718 l 142 718 l -6 0 "},"8":{"x_min":29.9375,"x_max":706.421875,"ha":772,"o":"m 264 716 b 430 880 264 815 333 880 b 583 730 525 880 583 829 b 427 570 583 637 518 570 b 264 716 334 570 264 613 m 338 87 b 152 263 231 87 152 145 b 368 466 152 397 242 466 b 547 288 483 466 547 393 b 338 87 547 163 460 87 m 141 720 b 261 538 141 644 193 569 l 261 536 b 29 262 121 511 29 409 b 347 -16 29 72 176 -16 b 669 284 515 -16 669 102 b 533 516 669 386 627 476 l 533 519 b 706 740 635 543 706 631 b 435 984 706 894 577 984 b 141 720 277 984 141 891 "},"ž":{"x_min":-72,"x_max":613,"ha":617,"o":"m -72 0 l 501 0 l 520 104 l 99 104 l 593 633 l 611 718 l 76 718 l 56 614 l 434 614 l -55 89 l -72 0 m 613 1015 l 506 1015 l 380 886 l 310 1015 l 207 1015 l 312 817 l 429 817 l 613 1015 "},"R":{"x_min":9.546875,"x_max":909.265625,"ha":951,"o":"m 321 880 l 589 880 b 780 730 686 880 780 854 b 540 535 780 660 744 535 l 249 535 l 321 880 m 9 0 l 138 0 l 225 423 l 513 423 b 658 212 568 423 699 448 b 656 0 639 111 643 36 l 790 0 b 789 254 751 79 784 164 b 690 469 799 354 774 443 l 690 472 b 909 739 819 492 909 607 b 589 992 909 935 754 992 l 215 992 l 9 0 "},"á":{"x_min":-12.9375,"x_max":636.3125,"ha":721,"o":"m 102 187 b 259 317 102 278 176 305 b 485 366 343 328 434 335 l 487 366 b 426 181 471 299 464 235 b 229 87 385 117 319 87 b 102 187 164 87 102 120 m 188 500 b 377 630 202 593 289 630 b 519 535 438 630 519 613 b 342 421 519 439 464 432 b -12 185 187 407 -12 393 b 202 -17 -12 38 85 -17 b 437 87 320 -17 388 20 l 440 84 b 531 -17 433 21 467 -17 b 602 0 551 -17 584 -10 l 619 87 b 583 77 609 82 594 77 b 549 121 564 77 549 88 b 568 224 549 155 562 195 l 613 420 b 634 550 621 459 634 510 b 377 734 634 696 513 734 b 72 500 227 734 95 660 l 188 500 m 355 816 l 451 816 l 636 1014 l 482 1014 l 355 816 "},"×":{"x_min":97,"x_max":722,"ha":833,"o":"m 162 33 l 410 285 l 656 33 l 722 99 l 475 352 l 720 602 l 655 669 l 410 419 l 163 669 l 98 602 l 344 352 l 97 99 l 162 33 "},"o":{"x_min":23.140625,"x_max":709.140625,"ha":797,"o":"m 138 284 b 408 630 138 433 231 630 b 593 427 534 630 593 540 b 332 87 593 286 500 87 b 138 284 205 87 138 166 m 23 283 b 319 -16 23 109 134 -16 b 709 437 566 -16 709 202 b 416 734 709 629 604 734 b 23 283 170 734 23 518 "},"5":{"x_min":10.265625,"x_max":712.59375,"ha":772,"o":"m 712 967 l 223 967 l 74 448 l 177 448 b 349 543 210 507 281 543 b 541 345 473 543 541 471 b 306 86 541 203 458 86 b 132 263 189 86 132 149 l 10 263 b 300 -17 10 85 124 -17 b 554 75 399 -17 481 9 b 663 350 628 146 663 248 b 392 648 663 518 565 648 b 222 593 332 648 268 631 l 219 596 l 296 863 l 692 863 l 712 967 "},"õ":{"x_min":22.96875,"x_max":708.984375,"ha":797,"o":"m 138 284 b 408 629 138 432 231 629 b 593 427 534 629 593 539 b 331 86 593 285 500 86 b 138 284 205 86 138 166 m 22 282 b 319 -17 22 109 134 -17 b 708 436 566 -17 708 202 b 416 734 708 628 604 734 b 22 282 169 734 22 517 m 307 828 b 371 885 318 859 334 885 b 459 856 391 885 424 874 b 563 821 495 838 533 821 b 702 972 647 821 680 903 l 632 972 b 563 916 616 941 604 916 b 476 945 540 911 510 931 b 371 979 442 961 406 979 b 236 828 292 979 257 893 l 307 828 "},"7":{"x_min":132,"x_max":784,"ha":772,"o":"m 784 968 l 161 968 l 138 863 l 641 863 b 132 0 411 615 231 319 l 264 0 b 767 869 353 291 545 658 l 784 968 "},"K":{"x_min":10,"x_max":968,"ha":926,"o":"m 10 0 l 139 0 l 208 334 l 403 502 l 668 0 l 811 0 l 499 583 l 968 991 l 795 991 l 245 500 l 242 502 l 344 991 l 215 991 l 10 0 "},",":{"x_min":-22,"x_max":204,"ha":386,"o":"m 20 0 l 96 0 b -8 -137 80 -62 63 -126 l -22 -204 b 204 154 168 -187 168 -1 l 52 154 l 20 0 "},"d":{"x_min":23.140625,"x_max":824.828125,"ha":824,"o":"m 138 277 b 417 630 138 436 234 630 b 594 444 532 630 594 551 b 319 87 594 294 495 87 b 138 277 193 87 138 161 m 824 991 l 710 991 l 635 608 l 632 608 b 413 734 605 704 499 734 b 23 277 167 734 23 495 b 299 -16 23 102 119 -16 b 532 102 393 -16 462 9 l 534 102 l 510 0 l 619 0 l 824 991 "},"¨":{"x_min":78,"x_max":450,"ha":308,"o":"m 300 822 l 421 822 l 450 966 l 328 966 l 300 822 m 78 822 l 199 822 l 227 966 l 106 966 l 78 822 "},"Ô":{"x_min":51.71875,"x_max":990.890625,"ha":1054,"o":"m 51 411 b 468 -23 51 137 202 -23 b 990 576 792 -23 990 265 b 585 1015 990 822 837 1015 b 51 411 253 1015 51 732 m 181 411 b 585 904 181 650 314 904 b 861 576 764 904 861 759 b 468 87 861 340 725 87 b 181 411 273 87 181 219 m 406 1048 l 518 1048 l 637 1178 l 706 1048 l 807 1048 l 705 1247 l 588 1247 l 406 1048 "},"E":{"x_min":10,"x_max":885,"ha":849,"o":"m 10 0 l 686 0 l 710 111 l 163 111 l 234 454 l 739 454 l 761 565 l 257 565 l 322 880 l 863 880 l 885 991 l 215 991 l 10 0 "},"Y":{"x_min":90,"x_max":945,"ha":849,"o":"m 262 0 l 389 0 l 473 398 l 945 991 l 795 991 l 426 511 l 227 991 l 90 991 l 345 398 l 262 0 "},"\"":{"x_min":198.71875,"x_max":481.828125,"ha":592,"o":"m 198 633 l 291 633 l 291 991 l 198 991 l 198 633 m 389 633 l 481 633 l 481 991 l 389 991 l 389 633 "},"‹":{"x_min":41.0625,"x_max":308,"ha":360,"o":"m 208 158 l 234 276 l 115 401 l 279 495 l 308 614 l 71 474 l 41 347 l 208 158 "},"˙":{"x_min":186,"x_max":336,"ha":308,"o":"m 186 822 l 307 822 l 336 966 l 214 966 l 186 822 "},"ê":{"x_min":13.71875,"x_max":673.890625,"ha":746,"o":"m 149 428 b 393 631 183 540 257 631 b 558 428 521 631 566 530 l 149 428 m 663 324 b 673 417 667 344 673 380 b 375 735 673 620 582 735 b 13 273 182 735 13 548 b 311 -15 13 148 79 -15 b 630 226 465 -15 593 67 l 514 226 b 311 88 481 137 412 88 b 129 262 217 88 129 151 b 133 324 129 283 130 303 l 663 324 m 221 817 l 333 817 l 452 947 l 521 817 l 622 817 l 520 1016 l 403 1016 l 221 817 "},"Ï":{"x_min":10,"x_max":489,"ha":360,"o":"m 10 0 l 139 0 l 343 991 l 214 991 l 10 0 m 339 1054 l 460 1054 l 489 1198 l 367 1198 l 339 1054 m 117 1054 l 238 1054 l 267 1198 l 146 1198 l 117 1054 "},"„":{"x_min":-49,"x_max":425,"ha":592,"o":"m -6 0 l 69 0 b -35 -137 53 -62 36 -126 l -49 -204 b 177 154 141 -187 141 -1 l 25 154 l -6 0 m 241 0 l 317 0 b 212 -137 301 -62 284 -126 l 198 -204 b 425 154 389 -187 389 -1 l 273 154 l 241 0 "},"Â":{"x_min":-75,"x_max":827,"ha":926,"o":"m 557 875 l 560 875 l 632 409 l 297 409 l 557 875 m -75 0 l 69 0 l 239 298 l 648 298 l 693 0 l 827 0 l 651 991 l 510 991 l -75 0 m 371 1048 l 482 1048 l 601 1178 l 670 1048 l 771 1048 l 669 1247 l 552 1247 l 371 1048 "},"Í":{"x_min":10,"x_max":507,"ha":360,"o":"m 10 0 l 139 0 l 343 991 l 214 991 l 10 0 m 226 1048 l 321 1048 l 507 1247 l 353 1247 l 226 1048 "},"´":{"x_min":186,"x_max":466,"ha":308,"o":"m 186 816 l 281 816 l 466 1015 l 312 1015 l 186 816 "},"ì":{"x_min":-6.96875,"x_max":331.984375,"ha":308,"o":"m 108 0 l 255 718 l 140 718 l -6 0 l 108 0 m 240 1015 l 103 1015 l 240 816 l 331 816 l 240 1015 "},"±":{"x_min":65.328125,"x_max":751.328125,"ha":833,"o":"m 65 376 l 362 376 l 362 144 l 454 144 l 454 376 l 751 376 l 751 470 l 454 470 l 454 701 l 362 701 l 362 470 l 65 470 l 65 376 m 65 0 l 751 0 l 751 94 l 65 94 l 65 0 "},"Ú":{"x_min":77.28125,"x_max":991.40625,"ha":1003,"o":"m 991 991 l 862 991 l 739 397 b 442 87 701 211 655 87 b 212 375 255 87 169 183 l 340 991 l 211 991 l 90 408 b 442 -23 34 131 158 -23 b 821 206 607 -23 755 43 b 870 397 837 245 853 320 l 991 991 m 540 1048 l 636 1048 l 821 1247 l 667 1247 l 540 1048 "},"|":{"x_min":104.8125,"x_max":197.359375,"ha":308,"o":"m 104 -297 l 197 -297 l 197 1091 l 104 1091 l 104 -297 "},"§":{"x_min":9.75,"x_max":708.140625,"ha":772,"o":"m 171 486 b 212 573 171 520 186 551 b 296 616 224 586 277 616 b 559 281 352 531 559 384 b 427 143 559 198 502 159 b 347 233 404 169 357 222 l 251 337 b 171 486 215 376 171 430 m 707 769 b 469 1013 717 922 613 1013 b 222 797 341 1013 220 940 b 252 687 222 758 230 719 b 62 469 137 662 62 594 b 148 280 62 400 106 329 l 330 79 b 397 -61 360 45 397 -12 b 268 -172 397 -130 338 -172 b 118 -13 168 -172 118 -109 l 9 -13 b 249 -276 9 -162 96 -273 b 512 -51 386 -273 512 -208 b 473 72 512 -13 497 44 b 668 297 590 87 668 175 b 620 430 668 350 650 388 b 401 673 556 519 476 594 b 337 802 367 709 337 748 b 466 909 337 866 397 909 b 598 769 557 909 600 852 l 707 769 "},"Ý":{"x_min":90,"x_max":945,"ha":849,"o":"m 262 0 l 389 0 l 473 398 l 945 991 l 795 991 l 426 511 l 227 991 l 90 991 l 345 398 l 262 0 m 452 1048 l 547 1048 l 732 1247 l 578 1247 l 452 1048 "},"b":{"x_min":-6.8125,"x_max":733.640625,"ha":824,"o":"m 617 425 b 362 87 617 284 529 87 b 170 266 247 87 170 154 b 457 630 170 419 254 630 b 617 425 564 630 617 538 m -6 0 l 96 0 l 122 133 l 125 133 b 362 -16 140 62 232 -16 b 733 425 600 -16 733 201 b 457 734 733 608 645 734 b 242 626 371 734 294 694 l 239 629 l 314 991 l 198 991 l -6 0 "},"q":{"x_min":23.140625,"x_max":763.578125,"ha":824,"o":"m 763 718 l 646 718 l 623 604 l 620 604 b 393 734 582 702 496 734 b 23 294 160 734 23 515 b 292 -16 23 115 108 -16 b 514 91 379 -16 460 23 l 517 91 l 441 -275 l 558 -275 l 763 718 m 138 294 b 405 630 138 443 234 630 b 586 454 518 630 586 562 b 318 87 586 301 503 87 b 138 294 190 87 138 181 "},"Ω":{"x_min":-39.453125,"x_max":908.46875,"ha":997,"o":"m 179 91 l -20 91 l -39 0 l 289 0 l 304 68 b 194 501 216 133 151 295 b 570 886 239 716 390 886 b 781 505 760 886 817 686 b 488 68 734 284 605 136 l 474 0 l 805 0 l 824 91 l 621 91 l 621 95 b 896 526 730 175 854 327 b 592 980 945 761 838 980 b 87 520 357 980 142 788 b 181 95 47 329 103 181 l 179 91 "},"Ö":{"x_min":51.71875,"x_max":990.890625,"ha":1054,"o":"m 51 411 b 468 -23 51 137 202 -23 b 990 576 792 -23 990 265 b 585 1015 990 822 837 1015 b 51 411 253 1015 51 731 m 181 411 b 585 904 181 650 314 904 b 861 576 764 904 861 759 b 468 87 861 340 725 87 b 181 411 273 87 181 219 m 665 1054 l 786 1054 l 815 1198 l 694 1198 l 665 1054 m 443 1054 l 564 1054 l 593 1198 l 472 1198 l 443 1054 "},"ﬂ":{"x_min":31,"x_max":717,"ha":721,"o":"m 31 0 l 146 0 l 276 613 l 412 613 l 431 718 l 296 718 b 432 898 323 805 316 898 b 486 891 450 898 469 895 l 506 991 b 409 1002 474 1000 442 1002 b 182 718 224 1002 218 863 l 62 718 l 41 613 l 161 613 l 31 0 m 397 0 l 512 0 l 717 991 l 601 991 l 397 0 "},"z":{"x_min":-72,"x_max":611,"ha":617,"o":"m -72 0 l 500 0 l 519 104 l 99 104 l 593 633 l 611 718 l 76 718 l 55 613 l 434 613 l -55 88 l -72 0 "},"™":{"x_min":87.109375,"x_max":1260.390625,"ha":1375,"o":"m 530 991 l 87 991 l 87 915 l 262 915 l 262 419 l 355 419 l 355 915 l 530 915 l 530 991 m 1260 991 l 1118 991 l 954 556 l 786 991 l 643 991 l 643 419 l 736 419 l 736 897 l 739 897 l 922 419 l 981 419 l 1165 897 l 1167 897 l 1167 419 l 1260 419 l 1260 991 "},"ã":{"x_min":-12.9375,"x_max":666.265625,"ha":721,"o":"m 102 186 b 259 317 102 278 176 305 b 485 366 343 328 434 335 l 487 366 b 426 181 471 299 464 235 b 229 87 385 117 319 87 b 102 186 164 87 102 120 m 188 500 b 377 629 202 593 289 629 b 519 535 438 629 519 613 b 342 421 519 439 464 432 b -12 185 187 407 -12 393 b 202 -17 -12 38 85 -17 b 437 87 320 -17 388 20 l 440 84 b 531 -17 433 21 467 -17 b 602 0 551 -17 584 -10 l 619 87 b 583 77 609 82 594 77 b 549 121 564 77 549 88 b 568 224 549 155 562 195 l 613 420 b 634 550 621 459 634 510 b 377 734 634 696 513 734 b 72 500 227 734 95 660 l 188 500 m 271 828 b 335 885 282 859 298 885 b 423 856 355 885 388 874 b 527 821 459 838 497 821 b 666 972 611 821 644 903 l 596 972 b 527 916 580 941 568 916 b 440 945 504 911 474 931 b 335 979 406 961 370 979 b 200 828 256 979 221 893 l 271 828 "},"æ":{"x_min":-6.625,"x_max":1121.890625,"ha":1208,"o":"m 611 428 b 845 630 637 533 718 630 b 1006 428 974 630 1021 533 l 611 428 m 200 503 b 374 630 219 586 287 630 b 528 535 442 630 528 616 b 261 403 528 416 394 419 b -6 183 126 387 -6 340 b 220 -16 -6 28 103 -16 b 496 139 340 -16 435 35 b 744 -16 537 16 634 -16 b 1042 144 876 -16 970 33 b 1081 225 1059 169 1071 197 l 962 225 b 754 87 925 137 856 87 b 585 251 637 87 585 165 b 592 323 585 276 589 301 l 1102 323 b 1121 453 1113 366 1121 411 b 850 735 1121 632 1029 735 b 626 622 765 735 676 694 b 401 735 584 711 491 735 b 87 503 246 735 114 672 l 200 503 m 109 183 b 249 316 109 272 170 301 b 492 369 328 333 424 335 b 409 150 480 300 458 200 b 239 87 364 104 302 87 b 109 183 173 87 109 114 "},"®":{"x_min":32.671875,"x_max":1056.21875,"ha":1111,"o":"m 32 498 b 545 -23 32 200 266 -23 b 1056 498 823 -23 1056 200 b 545 1015 1056 791 823 1015 b 32 498 266 1015 32 791 m 125 498 b 545 938 125 747 307 938 b 963 498 781 938 963 747 b 545 52 963 244 781 52 b 125 498 307 52 125 244 m 347 193 l 439 193 l 439 454 l 537 454 l 699 193 l 798 193 l 628 461 b 785 626 717 470 785 516 b 577 800 785 743 718 800 l 347 800 l 347 193 m 439 723 l 562 723 b 692 630 624 723 692 711 b 536 530 692 534 617 530 l 439 530 l 439 723 "},"É":{"x_min":10,"x_max":885,"ha":849,"o":"m 10 0 l 686 0 l 710 111 l 163 111 l 234 454 l 739 454 l 761 565 l 257 565 l 322 880 l 863 880 l 885 991 l 215 991 l 10 0 m 493 1048 l 588 1048 l 773 1247 l 619 1247 l 493 1048 "},"~":{"x_min":94,"x_max":722.828125,"ha":833,"o":"m 673 443 b 554 337 642 394 608 337 b 415 393 517 337 465 370 b 264 437 363 416 310 437 b 94 318 172 437 123 376 l 143 248 b 257 354 164 297 197 354 b 413 300 319 354 370 325 b 552 254 458 275 502 254 b 722 373 637 254 682 315 l 673 443 "},"³":{"x_min":22.828125,"x_max":491.359375,"ha":463,"o":"m 217 662 b 367 573 291 666 367 663 b 228 455 367 495 308 455 b 115 573 127 455 112 508 l 23 573 b 225 379 17 451 83 379 b 460 572 377 379 460 479 b 371 695 460 629 431 675 l 371 698 b 491 834 441 715 491 769 b 302 984 491 936 404 984 b 84 800 174 984 89 906 l 176 800 b 298 908 179 863 227 908 b 398 833 353 908 398 893 b 230 731 398 740 307 726 l 217 662 "},"¡":{"x_min":-37,"x_max":306,"ha":360,"o":"m 306 718 l 154 718 l 122 563 l 273 563 l 306 718 m -37 -275 l 89 -275 l 153 34 l 212 462 l 149 462 l 26 34 l -37 -275 "},"[":{"x_min":-39,"x_max":480,"ha":360,"o":"m -39 -275 l 218 -275 l 237 -184 l 90 -184 l 313 925 l 460 925 l 480 1015 l 222 1015 l -39 -275 "},"L":{"x_min":10,"x_max":677,"ha":772,"o":"m 10 0 l 653 0 l 677 111 l 163 111 l 343 991 l 214 991 l 10 0 "}," ":{"x_min":0,"x_max":0,"ha":386},"∑":{"x_min":127.78125,"x_max":819.140625,"ha":864,"o":"m 819 -133 l 819 -27 l 267 -27 l 267 -23 l 613 430 l 295 862 l 295 868 l 798 868 l 798 963 l 142 963 l 142 886 l 488 413 l 127 -59 l 127 -133 l 819 -133 "},"%":{"x_min":107.53125,"x_max":1148.78125,"ha":1286,"o":"m 200 636 b 366 908 200 729 247 908 b 465 790 434 908 465 866 b 307 505 465 673 426 505 b 200 636 228 505 200 551 m 107 630 b 303 429 107 505 182 429 b 558 783 484 429 558 625 b 359 984 558 916 488 984 b 107 630 183 984 107 780 m 698 184 b 894 -16 698 59 773 -16 b 1148 337 1075 -16 1148 179 b 950 538 1148 470 1079 538 b 698 184 774 538 698 334 m 790 190 b 956 462 790 283 838 462 b 1056 344 1024 462 1056 420 b 898 59 1056 227 1016 59 b 790 190 819 59 790 105 m 284 -38 l 371 -38 l 963 1006 l 876 1006 l 284 -38 "},"P":{"x_min":9.53125,"x_max":883.359375,"ha":900,"o":"m 9 0 l 138 0 l 223 405 l 511 405 b 883 718 797 405 883 594 b 594 991 883 898 781 991 l 212 991 l 9 0 m 321 880 l 594 880 b 754 718 680 880 754 840 b 539 516 754 600 677 516 l 246 516 l 321 880 "},"∏":{"x_min":130.671875,"x_max":1012.671875,"ha":1069,"o":"m 1012 862 l 1012 963 l 130 963 l 130 862 l 277 862 l 277 -133 l 386 -133 l 386 862 l 756 862 l 756 -133 l 865 -133 l 865 862 l 1012 862 "},"À":{"x_min":-75,"x_max":827,"ha":926,"o":"m 557 875 l 560 875 l 632 409 l 297 409 l 557 875 m -75 0 l 69 0 l 239 298 l 648 298 l 693 0 l 827 0 l 651 991 l 510 991 l -75 0 m 571 1247 l 433 1247 l 571 1048 l 662 1048 l 571 1247 "},"_":{"x_min":0,"x_max":680.5625,"ha":694,"o":"m 0 -173 l 680 -173 l 680 -104 l 0 -104 l 0 -173 "},"ñ":{"x_min":-6.8125,"x_max":724.109375,"ha":772,"o":"m -6 0 l 108 0 l 190 396 b 268 546 205 453 227 510 b 442 629 311 593 378 629 b 564 529 510 629 564 597 b 548 418 564 504 553 445 l 458 0 l 574 0 l 660 409 b 680 549 672 464 680 518 b 484 734 680 675 616 734 b 234 609 387 734 292 689 l 231 609 l 253 717 l 141 717 l -6 0 m 329 828 b 393 885 340 859 356 885 b 481 856 413 885 446 874 b 585 821 517 838 555 821 b 724 972 669 821 702 903 l 654 972 b 585 916 638 941 626 916 b 498 945 562 911 532 931 b 393 979 464 961 428 979 b 258 828 314 979 279 893 l 329 828 "},"+":{"x_min":65.328125,"x_max":751.328125,"ha":833,"o":"m 454 702 l 362 702 l 362 398 l 65 398 l 65 304 l 362 304 l 362 0 l 454 0 l 454 304 l 751 304 l 751 398 l 454 398 l 454 702 "},"‚":{"x_min":-45,"x_max":181,"ha":386,"o":"m -2 0 l 73 0 b -31 -137 57 -62 40 -126 l -45 -204 b 181 154 145 -187 145 -1 l 29 154 l -2 0 "},"½":{"x_min":107.8125,"x_max":1060.734375,"ha":1158,"o":"m 389 984 l 325 984 b 120 886 295 932 216 886 l 107 816 b 267 840 171 816 213 822 l 177 389 l 267 389 l 389 984 m 738 390 b 870 519 742 465 788 519 b 968 432 931 519 968 487 b 842 291 968 361 896 326 l 755 236 b 586 0 641 162 586 111 l 989 0 l 1003 76 l 689 76 b 829 189 695 114 770 155 l 915 239 b 1060 436 994 283 1060 344 b 878 596 1060 534 981 596 b 645 390 738 596 657 514 l 738 390 m 169 -38 l 256 -38 l 848 1007 l 761 1007 l 169 -38 "},"Æ":{"x_min":-108,"x_max":1313,"ha":1286,"o":"m 652 880 l 682 880 l 580 400 l 319 400 l 652 880 m -108 0 l 40 0 l 243 288 l 556 288 l 497 0 l 1117 0 l 1138 111 l 652 111 l 725 454 l 1172 454 l 1197 565 l 748 565 l 812 880 l 1289 880 l 1313 991 l 599 991 l -108 0 "},"Ë":{"x_min":10,"x_max":885,"ha":849,"o":"m 10 0 l 686 0 l 710 111 l 163 111 l 234 454 l 739 454 l 761 565 l 257 565 l 322 880 l 863 880 l 885 991 l 215 991 l 10 0 m 606 1054 l 727 1054 l 755 1198 l 634 1198 l 606 1054 m 384 1054 l 505 1054 l 533 1198 l 412 1198 l 384 1054 "},"'":{"x_min":193.28125,"x_max":285.828125,"ha":386,"o":"m 193 633 l 285 633 l 285 991 l 193 991 l 193 633 "},"Š":{"x_min":18.703125,"x_max":835.328125,"ha":900,"o":"m 835 699 b 482 1015 841 919 674 1015 b 128 728 309 1015 128 919 b 346 478 128 582 230 510 l 478 442 b 651 278 573 415 651 379 b 407 88 651 144 528 88 b 149 325 249 88 140 146 l 19 325 b 402 -23 3 82 168 -23 b 780 278 577 -23 780 74 b 546 546 780 456 667 513 l 415 582 b 258 742 327 607 258 646 b 482 904 258 860 387 904 b 705 699 615 904 709 856 l 835 699 m 783 1247 l 677 1247 l 550 1118 l 481 1247 l 377 1247 l 482 1049 l 599 1049 l 783 1247 "},"ª":{"x_min":44.921875,"x_max":475.9375,"ha":432,"o":"m 183 841 b 302 915 194 895 245 915 b 393 866 345 915 393 906 b 221 788 393 804 310 795 b 44 656 145 783 44 754 b 206 527 44 558 111 527 b 338 591 259 527 310 552 l 343 591 b 403 527 338 554 360 527 b 450 537 417 527 437 531 l 460 601 b 440 597 454 598 444 597 b 417 613 429 597 417 600 b 434 694 417 633 429 670 l 462 809 b 475 883 466 831 475 863 b 302 984 475 958 367 984 b 102 841 202 984 114 937 l 183 841 m 356 693 b 206 597 340 631 306 602 b 126 648 163 597 126 613 b 226 726 126 704 171 719 b 370 755 280 733 343 731 l 373 755 l 356 693 "},"Œ":{"x_min":57.171875,"x_max":1505.390625,"ha":1492,"o":"m 732 357 b 650 168 717 283 705 222 b 446 87 596 114 519 87 b 186 406 270 87 186 243 b 581 904 186 644 319 904 b 808 742 680 904 824 822 l 732 357 m 1505 992 l 871 992 l 849 881 b 568 1015 792 978 673 1015 b 57 417 253 1015 57 710 b 439 -23 57 172 185 -23 b 679 79 528 -23 624 8 l 681 79 l 664 0 l 1310 0 l 1332 111 l 809 111 l 880 454 l 1352 454 l 1374 565 l 902 565 l 967 881 l 1483 881 l 1505 992 "},"˛":{"x_min":-36.75,"x_max":254.53125,"ha":308,"o":"m 136 1 b -36 -194 46 -56 -36 -125 b 84 -293 -36 -274 28 -293 b 254 -206 155 -293 201 -270 l 204 -190 b 106 -223 168 -218 137 -223 b 55 -172 74 -223 55 -204 b 227 1 55 -113 191 -22 l 136 1 "},"ð":{"x_min":23.140625,"x_max":720.03125,"ha":797,"o":"m 408 598 b 597 415 534 598 597 520 b 332 87 597 280 500 87 b 138 277 205 87 138 166 b 408 598 138 413 231 598 m 631 1019 l 488 945 b 394 1015 455 974 426 995 l 307 952 b 387 894 338 931 363 915 l 234 816 l 291 760 l 446 840 b 594 628 492 808 568 713 l 592 628 b 416 702 539 687 477 702 b 23 276 170 702 23 498 b 319 -16 23 109 134 -16 b 720 474 585 -16 720 203 b 544 890 718 681 650 785 l 691 966 l 631 1019 "},"T":{"x_min":82,"x_max":889,"ha":797,"o":"m 889 991 l 105 991 l 82 880 l 408 880 l 226 0 l 355 0 l 537 880 l 864 880 l 889 991 "},"š":{"x_min":-12.265625,"x_max":638.359375,"ha":668,"o":"m 598 507 b 333 735 598 675 464 735 b 72 528 202 735 72 661 b 258 333 72 419 164 371 b 443 197 351 294 443 267 b 283 87 443 115 357 87 b 103 226 186 87 98 119 l -12 226 b 272 -16 -13 43 111 -16 b 559 206 408 -16 559 46 b 372 407 559 318 465 368 b 187 539 280 446 187 472 b 337 631 187 611 266 631 b 483 507 417 631 488 589 l 598 507 m 638 1015 l 532 1015 l 405 886 l 336 1015 l 232 1015 l 337 817 l 454 817 l 638 1015 "},"℮":{"x_min":145.796875,"x_max":1236.046875,"ha":1308,"o":"m 1236 469 l 1236 483 b 690 984 1236 759 992 984 b 145 483 389 984 145 759 b 690 -15 145 208 389 -15 b 1121 177 865 -15 1023 61 l 1042 177 b 691 12 957 77 833 12 b 358 159 560 12 443 69 b 345 191 349 169 345 179 l 345 463 b 354 469 345 468 348 469 l 1236 469 m 1035 505 b 1030 497 1035 502 1034 497 l 354 497 b 345 505 348 497 345 502 l 345 773 b 359 808 345 787 349 798 b 691 954 445 897 562 954 b 1022 812 820 954 936 898 b 1035 779 1031 802 1035 791 l 1035 505 "},"Þ":{"x_min":9.53125,"x_max":849.328125,"ha":900,"o":"m 9 0 l 138 0 l 189 247 l 477 247 b 849 559 763 247 849 436 b 560 833 849 740 747 833 l 310 833 l 341 991 l 212 991 l 9 0 m 287 722 l 560 722 b 720 559 646 722 720 681 b 504 358 720 441 643 358 l 212 358 l 287 722 "},"j":{"x_min":-163,"x_max":313,"ha":308,"o":"m -163 -266 b -86 -275 -138 -273 -112 -275 b 79 -134 5 -275 58 -223 l 255 718 l 140 718 l -13 -36 b -97 -170 -33 -137 -47 -170 b -142 -162 -112 -170 -127 -166 l -163 -266 m 313 991 l 196 991 l 166 847 l 283 847 l 313 991 "},"1":{"x_min":169,"x_max":590,"ha":772,"o":"m 590 984 l 500 984 b 188 815 442 872 303 815 l 169 720 b 418 748 257 720 332 727 l 261 0 l 384 0 l 590 984 "},"›":{"x_min":26,"x_max":292.9375,"ha":360,"o":"m 125 614 l 99 495 l 218 370 l 54 276 l 26 158 l 262 297 l 292 424 l 125 614 "},"ı":{"x_min":-6.6875,"x_max":256,"ha":308,"o":"m 109 0 l 256 718 l 140 718 l -6 0 l 109 0 "},"ℓ":{"x_min":-11.34375,"x_max":608.34375,"ha":676,"o":"m 521 212 b 310 79 473 150 393 79 b 206 286 232 79 176 138 l 216 333 b 600 836 419 500 564 663 b 476 1063 625 962 593 1063 b 192 729 371 1063 246 980 l 115 354 b -11 259 75 322 32 293 l 6 194 b 96 258 36 216 68 240 b 93 241 94 252 94 247 b 267 -9 71 106 111 -9 b 561 165 374 -9 476 45 l 521 212 m 300 736 b 459 980 338 920 410 980 b 525 836 529 980 542 922 b 239 441 497 704 380 570 l 300 736 "},"ä":{"x_min":-12.9375,"x_max":634.953125,"ha":721,"o":"m 102 187 b 259 317 102 278 176 305 b 485 366 343 328 434 335 l 487 366 b 426 181 471 299 464 235 b 229 87 385 117 319 87 b 102 187 164 87 102 120 m 188 500 b 377 630 202 593 289 630 b 519 535 438 630 519 613 b 342 421 519 439 464 432 b -12 185 187 407 -12 393 b 202 -17 -12 38 85 -17 b 437 87 320 -17 388 20 l 440 84 b 531 -17 433 21 467 -17 b 602 0 551 -17 584 -10 l 619 87 b 583 77 609 82 594 77 b 549 121 564 77 549 88 b 568 224 549 155 562 195 l 613 420 b 634 550 621 459 634 510 b 377 734 634 696 513 734 b 72 500 227 734 95 660 l 188 500 m 468 821 l 590 821 l 618 966 l 497 966 l 468 821 m 247 821 l 368 821 l 396 966 l 275 966 l 247 821 "},"<":{"x_min":62.609375,"x_max":754.0625,"ha":833,"o":"m 754 714 l 62 394 l 62 308 l 754 -11 l 754 83 l 175 351 l 754 619 l 754 714 "},"£":{"x_min":-4.03125,"x_max":730.328125,"ha":772,"o":"m 35 -16 b 196 43 85 12 136 43 b 333 10 242 43 287 26 b 475 -22 378 -6 426 -22 b 660 44 533 -22 612 10 l 616 144 b 488 80 579 117 534 80 b 373 110 445 80 408 98 b 258 133 336 122 301 133 b 106 95 212 133 145 115 l 106 98 b 288 359 197 153 288 270 b 275 453 288 391 284 427 l 452 453 l 465 516 l 256 516 b 224 678 237 567 224 623 b 441 910 224 810 316 910 b 607 673 563 910 616 787 l 729 673 b 431 1015 739 863 635 1015 b 102 692 260 1015 102 877 b 133 516 102 633 118 573 l 49 516 l 35 453 l 152 453 b 166 342 163 412 166 376 b -4 87 166 237 96 167 l 35 -16 "},"¹":{"x_min":132,"x_max":414,"ha":463,"o":"m 414 984 l 349 984 b 144 886 320 932 240 886 l 132 816 b 291 840 196 816 238 822 l 201 389 l 291 389 l 414 984 "},"t":{"x_min":45.046875,"x_max":441.140625,"ha":438,"o":"m 344 930 l 228 930 l 185 718 l 66 718 l 45 613 l 163 613 l 70 168 b 64 108 66 145 64 129 b 222 -8 64 16 136 -8 b 303 0 249 -8 276 -5 l 324 108 b 257 95 302 101 280 95 b 187 144 222 95 187 106 b 192 191 187 161 190 175 l 279 613 l 419 613 l 441 718 l 300 718 l 344 930 "},"¬":{"x_min":65.328125,"x_max":751.328125,"ha":833,"o":"m 751 538 l 65 538 l 65 444 l 658 444 l 658 151 l 751 151 l 751 538 "},"ù":{"x_min":20.421875,"x_max":707.78125,"ha":772,"o":"m 707 718 l 592 718 l 510 320 b 258 87 485 201 386 87 b 136 187 190 87 136 119 b 152 298 136 212 147 272 l 242 718 l 126 718 l 40 308 b 20 168 28 252 20 198 b 216 -16 20 41 84 -16 b 466 108 313 -16 408 27 l 469 108 l 447 0 l 559 0 l 707 718 m 408 1015 l 270 1015 l 408 816 l 499 816 l 408 1015 "},"W":{"x_min":108.921875,"x_max":1338,"ha":1286,"o":"m 1338 991 l 1204 991 l 850 154 l 848 154 l 793 991 l 646 991 l 273 156 l 270 156 l 236 991 l 108 991 l 170 0 l 309 0 l 692 855 l 695 855 l 756 0 l 891 0 l 1338 991 "},"ï":{"x_min":-7.0625,"x_max":435,"ha":308,"o":"m 108 0 l 255 718 l 139 718 l -7 0 l 108 0 m 285 822 l 406 822 l 435 966 l 313 966 l 285 822 m 63 822 l 184 822 l 213 966 l 92 966 l 63 822 "},">":{"x_min":62.609375,"x_max":754.0625,"ha":833,"o":"m 62 -11 l 754 308 l 754 394 l 62 714 l 62 619 l 641 351 l 62 83 l 62 -11 "},"v":{"x_min":57,"x_max":672,"ha":668,"o":"m 672 718 l 546 718 l 242 120 l 239 120 l 179 718 l 57 718 l 157 0 l 281 0 l 672 718 "},"û":{"x_min":20.421875,"x_max":707.78125,"ha":772,"o":"m 707 719 l 592 719 l 510 322 b 258 88 485 202 386 88 b 136 188 190 88 136 120 b 152 299 136 213 147 273 l 242 719 l 126 719 l 40 309 b 20 169 28 253 20 199 b 216 -15 20 42 84 -15 b 466 109 313 -15 408 28 l 469 109 l 447 1 l 559 1 l 707 719 m 240 817 l 352 817 l 470 947 l 540 817 l 641 817 l 539 1016 l 421 1016 l 240 817 "},"Ò":{"x_min":51.71875,"x_max":990.890625,"ha":1054,"o":"m 51 411 b 468 -23 51 137 202 -23 b 990 576 792 -23 990 265 b 585 1015 990 822 837 1015 b 51 411 253 1015 51 731 m 181 411 b 585 904 181 650 314 904 b 861 576 764 904 861 759 b 468 87 861 340 725 87 b 181 411 273 87 181 219 m 607 1247 l 469 1247 l 607 1048 l 698 1048 l 607 1247 "},"&":{"x_min":28.65625,"x_max":794.15625,"ha":875,"o":"m 523 180 b 311 87 454 120 399 87 b 144 234 224 87 144 147 b 349 469 144 354 258 422 l 523 180 m 637 0 l 769 0 l 653 180 b 794 468 719 258 765 336 l 682 468 b 596 266 674 400 634 319 l 444 522 b 683 802 553 583 683 662 b 461 991 683 929 574 991 b 219 772 321 991 219 904 b 299 552 219 683 261 613 b 28 240 171 487 28 405 b 299 -16 28 79 148 -16 b 577 102 411 -16 504 30 l 637 0 m 334 765 b 460 887 334 840 389 887 b 568 784 520 887 568 847 b 396 602 568 698 464 643 b 334 765 364 654 334 702 "},"˝":{"x_min":18,"x_max":524,"ha":308,"o":"m 18 816 l 113 816 l 298 1015 l 144 1015 l 18 816 m 243 816 l 339 816 l 524 1015 l 370 1015 l 243 816 "},"Ð":{"x_min":9.53125,"x_max":922.828125,"ha":978,"o":"m 9 0 l 382 0 b 922 612 703 0 922 238 b 555 991 922 847 797 991 l 215 991 l 126 565 l 36 565 l 17 470 l 107 470 l 9 0 m 318 880 l 525 880 b 793 598 740 880 793 744 b 383 111 793 358 658 111 l 159 111 l 234 470 l 506 470 l 525 565 l 253 565 l 318 880 "},"I":{"x_min":10,"x_max":343,"ha":360,"o":"m 10 0 l 139 0 l 343 991 l 213 991 l 10 0 "},"ˉ":{"x_min":72,"x_max":454,"ha":308,"o":"m 72 861 l 439 861 l 454 937 l 88 937 l 72 861 "},"G":{"x_min":51.859375,"x_max":976.0625,"ha":1054,"o":"m 766 0 l 848 0 l 954 522 l 530 522 l 509 411 l 819 411 b 468 87 773 219 673 87 b 181 411 273 87 181 219 b 585 904 181 650 314 904 b 846 683 726 904 846 834 l 976 683 b 585 1015 976 912 800 1015 b 51 411 253 1015 51 731 b 468 -23 51 137 202 -23 b 758 98 573 -23 684 15 l 766 0 "},"`":{"x_min":103,"x_max":331.671875,"ha":308,"o":"m 240 1015 l 103 1015 l 240 816 l 331 816 l 240 1015 "},"·":{"x_min":91.1875,"x_max":265.421875,"ha":386,"o":"m 91 351 b 178 262 91 304 130 262 b 265 351 227 262 265 300 b 178 440 265 401 227 440 b 91 351 133 440 91 402 "},"r":{"x_min":-7,"x_max":514,"ha":463,"o":"m -7 0 l 108 0 l 175 318 b 233 486 186 372 202 440 b 383 602 270 543 319 586 b 452 609 410 609 424 609 b 486 608 463 609 475 609 l 514 734 b 473 734 500 737 486 734 b 217 563 354 734 271 662 l 214 563 l 248 718 l 139 718 l -7 0 "},"¿":{"x_min":-25.859375,"x_max":586.640625,"ha":772,"o":"m 470 34 b 246 -187 447 -94 383 -187 b 96 -34 160 -187 96 -123 b 215 148 96 47 155 104 b 434 461 341 238 409 294 l 321 461 b 123 209 311 333 215 277 b -25 -44 39 144 -25 69 b 242 -291 -25 -201 99 -291 b 586 34 441 -291 566 -163 l 470 34 m 507 718 l 353 718 l 323 563 l 473 563 l 507 718 "},"ý":{"x_min":-86,"x_max":687,"ha":668,"o":"m 687 718 l 560 718 l 265 147 l 262 147 l 180 718 l 56 718 l 180 0 l 109 -119 b 1 -197 82 -165 52 -197 b -65 -177 -19 -197 -47 -188 l -86 -273 b -5 -291 -64 -284 -32 -291 b 221 -122 112 -291 164 -215 l 687 718 m 297 816 l 393 816 l 578 1015 l 424 1015 l 297 816 "},"x":{"x_min":-90,"x_max":672,"ha":668,"o":"m -90 0 l 50 0 l 289 294 l 417 0 l 549 0 l 369 370 l 672 718 l 531 718 l 322 456 l 216 718 l 82 718 l 239 380 l -90 0 "},"è":{"x_min":13.75,"x_max":673.890625,"ha":746,"o":"m 149 427 b 393 630 183 538 257 630 b 558 427 521 630 566 529 l 149 427 m 663 323 b 673 416 667 343 673 379 b 375 734 673 619 582 734 b 13 272 182 734 13 547 b 311 -16 13 147 79 -16 b 630 225 465 -16 593 66 l 514 225 b 311 87 481 136 412 87 b 129 261 217 87 129 150 b 133 323 129 281 130 302 l 663 323 m 422 1015 l 284 1015 l 422 816 l 513 816 l 422 1015 "},"º":{"x_min":59.875,"x_max":510.421875,"ha":478,"o":"m 141 712 b 313 915 141 802 200 915 b 428 798 393 915 428 863 b 257 597 428 700 362 597 b 141 712 179 597 141 647 m 59 711 b 257 527 58 587 138 527 b 510 804 415 527 510 663 b 318 984 510 919 441 984 b 59 711 157 984 59 852 "},"Ø":{"x_min":-16.046875,"x_max":1053.78125,"ha":1054,"o":"m -16 13 l 23 -30 l 152 98 l 156 98 b 468 -23 227 20 332 -23 b 991 576 792 -23 991 265 b 917 841 991 676 965 768 l 1053 973 l 1014 1018 l 880 888 b 585 1015 812 966 712 1015 b 52 411 253 1015 52 731 b 120 147 52 305 76 215 l -16 13 m 215 240 b 181 411 192 290 181 348 b 585 904 181 650 314 904 b 793 804 678 904 747 866 l 215 240 m 825 751 b 861 576 849 701 861 641 b 468 87 861 340 725 87 b 246 187 366 87 292 125 l 825 751 "},"∞":{"x_min":91.1875,"x_max":1008.578125,"ha":1097,"o":"m 1008 401 b 809 615 1008 527 928 615 b 556 451 694 616 624 529 b 306 615 484 538 408 615 b 91 394 182 615 91 522 b 295 177 91 270 185 177 b 551 341 406 177 480 256 b 800 177 646 229 715 177 b 1008 400 907 177 1008 262 l 1008 401 m 304 245 b 163 393 220 245 163 312 b 296 550 163 476 212 550 b 514 391 393 550 454 468 b 306 245 458 330 392 245 l 304 245 m 801 550 b 937 394 880 550 937 490 b 804 245 937 323 890 245 b 592 398 732 245 681 297 b 800 550 639 448 710 550 l 801 550 "},"μ":{"x_min":-76,"x_max":708,"ha":772,"o":"m 708 718 l 592 718 l 510 320 b 258 87 486 201 386 87 b 136 187 190 87 136 119 b 152 298 136 212 147 272 l 242 718 l 126 718 l -76 -275 l 39 -275 l 103 36 l 106 36 b 232 -16 121 13 169 -16 b 467 108 313 -16 408 27 l 469 108 l 448 0 l 559 0 l 708 718 "},"÷":{"x_min":65.328125,"x_max":751.328125,"ha":833,"o":"m 65 304 l 751 304 l 751 398 l 65 398 l 65 304 m 321 637 b 409 548 321 590 362 548 b 495 637 454 548 495 593 b 408 726 495 684 454 726 b 321 637 362 726 321 686 m 321 65 b 409 -23 321 18 362 -23 b 495 65 454 -23 495 20 b 408 154 495 112 454 154 b 321 65 362 154 321 113 "},"h":{"x_min":-6.8125,"x_max":680.5625,"ha":772,"o":"m -6 0 l 108 0 l 190 397 b 268 547 205 454 227 511 b 442 630 311 594 378 630 b 564 530 510 630 564 598 b 548 419 564 505 553 445 l 458 0 l 574 0 l 660 409 b 680 550 672 465 680 519 b 484 734 680 676 616 734 b 234 609 387 734 292 690 l 231 612 l 314 991 l 198 991 l -6 0 "},".":{"x_min":20,"x_max":204,"ha":386,"o":"m 20 0 l 171 0 l 204 154 l 52 154 l 20 0 "},";":{"x_min":-22,"x_max":318,"ha":386,"o":"m 20 0 l 96 0 b -8 -137 80 -62 63 -126 l -22 -204 b 203 154 168 -187 168 -1 l 52 154 l 20 0 m 318 718 l 167 718 l 134 563 l 285 563 l 318 718 "},"f":{"x_min":31,"x_max":506,"ha":411,"o":"m 31 0 l 146 0 l 275 613 l 412 613 l 431 718 l 296 718 b 432 898 323 805 316 898 b 486 891 450 898 469 895 l 506 991 b 409 1002 474 1000 442 1002 b 182 718 224 1002 218 863 l 62 718 l 41 613 l 161 613 l 31 0 "},"“":{"x_min":121,"x_max":595,"ha":592,"o":"m 552 787 l 476 787 b 581 925 492 850 509 914 l 595 992 b 368 633 404 975 404 789 l 520 633 l 552 787 m 304 787 l 228 787 b 333 925 244 850 261 914 l 347 992 b 121 633 156 975 156 789 l 272 633 l 304 787 "},"A":{"x_min":-75,"x_max":827,"ha":926,"o":"m 557 875 l 560 875 l 632 409 l 297 409 l 557 875 m -75 0 l 69 0 l 239 298 l 648 298 l 693 0 l 827 0 l 651 991 l 510 991 l -75 0 "},"6":{"x_min":39.46875,"x_max":741.8125,"ha":772,"o":"m 551 338 b 340 87 551 209 480 87 b 161 286 219 87 161 169 b 374 529 161 418 236 529 b 551 338 488 529 551 451 m 741 729 b 488 984 739 887 647 984 b 121 719 298 984 190 884 b 39 315 70 605 39 445 b 329 -16 39 126 127 -16 b 673 344 541 -16 673 140 b 401 633 673 505 562 633 b 190 534 322 633 234 602 l 187 534 b 469 880 228 680 288 880 b 619 729 570 880 617 829 l 741 729 "},"‘":{"x_min":151,"x_max":377,"ha":386,"o":"m 334 787 l 258 787 b 363 925 274 850 291 914 l 377 992 b 151 633 186 975 186 789 l 302 633 l 334 787 "},"π":{"x_min":-22.390625,"x_max":801.078125,"ha":797,"o":"m 769 622 l 801 719 l 255 719 b 49 680 149 719 87 702 l 49 605 b 202 622 79 615 120 622 b -22 0 158 441 57 150 l 83 0 b 312 622 161 131 267 447 l 552 622 l 462 194 b 444 0 439 83 436 23 l 552 0 b 575 204 549 37 550 90 l 662 622 l 769 622 "},"O":{"x_min":51.71875,"x_max":990.890625,"ha":1054,"o":"m 51 411 b 468 -23 51 137 202 -23 b 990 576 792 -23 990 265 b 585 1015 990 822 837 1015 b 51 411 253 1015 51 731 m 181 411 b 585 904 181 650 314 904 b 861 576 764 904 861 759 b 468 87 861 340 725 87 b 181 411 273 87 181 219 "},"n":{"x_min":-6.8125,"x_max":680.5625,"ha":772,"o":"m -6 0 l 108 0 l 190 397 b 268 547 205 454 227 511 b 442 630 311 594 378 630 b 564 530 510 630 564 598 b 548 419 564 505 553 445 l 458 0 l 574 0 l 660 409 b 680 550 672 465 680 519 b 484 734 680 676 616 734 b 234 609 387 734 292 690 l 231 609 l 253 718 l 141 718 l -6 0 "},"3":{"x_min":1.609375,"x_max":701.328125,"ha":772,"o":"m 291 466 b 531 304 408 466 531 454 b 307 87 531 170 437 87 b 124 304 155 87 120 197 l 1 304 b 305 -16 -2 83 114 -16 b 653 309 544 -16 653 173 b 528 513 653 395 622 472 b 701 738 615 540 701 623 b 422 984 701 905 592 984 b 97 680 216 984 120 843 l 219 680 b 415 880 235 816 307 880 b 578 744 494 880 578 859 b 312 561 578 575 434 555 l 291 466 "},"9":{"x_min":5.390625,"x_max":706.421875,"ha":772,"o":"m 372 436 b 196 626 257 436 196 513 b 397 880 196 744 264 880 b 583 679 522 880 583 801 b 372 436 583 548 510 436 m 5 234 b 269 -16 2 65 108 -16 b 626 255 461 -16 553 87 b 706 654 676 373 706 524 b 409 984 706 851 613 984 b 73 620 205 984 73 820 b 344 331 73 461 183 331 b 556 429 423 331 511 361 l 559 426 b 268 87 515 281 451 87 b 127 234 172 87 127 141 l 5 234 "},"l":{"x_min":-7,"x_max":313,"ha":308,"o":"m -7 0 l 108 0 l 313 991 l 197 991 l -7 0 "},"¤":{"x_min":34.109375,"x_max":722.890625,"ha":772,"o":"m 34 771 l 111 690 b 38 484 61 638 38 561 b 108 281 38 408 64 337 l 34 200 l 99 134 l 174 214 b 381 139 228 164 302 139 b 582 216 456 139 530 166 l 658 135 l 722 200 l 648 278 b 718 487 694 335 718 410 b 648 693 718 563 694 641 l 722 769 l 654 840 l 577 762 b 382 832 528 805 454 832 b 177 761 306 832 228 805 l 100 839 l 34 771 m 382 727 b 603 487 507 727 603 618 b 381 244 603 353 507 244 b 153 484 254 244 153 349 b 382 727 153 620 253 727 "},"∂":{"x_min":7.125,"x_max":710.40625,"ha":763,"o":"m 225 923 b 420 990 269 954 335 990 b 588 591 559 990 637 826 b 575 531 584 575 579 548 l 574 531 b 378 662 560 573 503 662 b 15 309 224 662 60 526 b 211 -11 -15 154 33 -11 b 689 559 446 -11 621 234 b 451 1083 763 913 631 1083 b 205 1005 338 1083 256 1041 l 225 923 m 241 83 b 124 309 142 83 97 179 b 378 572 154 452 269 572 b 539 425 481 572 533 483 b 243 83 485 248 369 83 l 241 83 "},"4":{"x_min":-5,"x_max":688,"ha":772,"o":"m 527 780 l 530 780 l 438 334 l 128 334 l 527 780 m 369 0 l 485 0 l 534 230 l 662 230 l 682 334 l 554 334 l 688 984 l 589 984 l 18 347 l -5 230 l 418 230 l 369 0 "},"p":{"x_min":-66.6875,"x_max":735,"ha":824,"o":"m 619 440 b 340 87 619 281 524 87 b 163 273 225 87 163 166 b 438 630 163 423 262 630 b 619 440 564 630 619 556 m -66 -275 l 47 -275 l 122 109 l 125 109 b 344 -16 152 13 258 -16 b 735 440 590 -16 735 222 b 458 734 735 615 638 734 b 225 615 364 734 295 708 l 223 615 l 247 718 l 138 718 l -66 -275 "},"‡":{"x_min":-29,"x_max":743,"ha":772,"o":"m 173 -215 l 289 -215 l 346 58 l 606 58 l 628 162 l 368 162 l 461 613 l 721 613 l 743 718 l 482 718 l 540 991 l 424 991 l 367 718 l 107 718 l 85 613 l 345 613 l 252 162 l -7 162 l -29 58 l 231 58 l 173 -215 "},"à":{"x_min":-12.9375,"x_max":634.953125,"ha":721,"o":"m 102 187 b 259 317 102 278 176 305 b 485 366 343 328 434 335 l 487 366 b 426 181 471 299 464 235 b 229 87 385 117 319 87 b 102 187 164 87 102 120 m 188 500 b 377 630 202 593 289 630 b 519 535 438 630 519 613 b 342 421 519 439 464 432 b -12 185 187 407 -12 393 b 202 -17 -12 38 85 -17 b 437 87 320 -17 388 20 l 440 84 b 531 -17 433 21 467 -17 b 602 0 551 -17 584 -10 l 619 87 b 583 77 609 82 594 77 b 549 121 564 77 549 88 b 568 224 549 155 562 195 l 613 420 b 634 550 621 459 634 510 b 377 734 634 696 513 734 b 72 500 227 734 95 660 l 188 500 m 410 1014 l 272 1014 l 410 816 l 501 816 l 410 1014 "},"Ü":{"x_min":77.28125,"x_max":991.40625,"ha":1003,"o":"m 991 991 l 862 991 l 739 397 b 442 87 701 211 655 87 b 212 375 255 87 169 183 l 340 991 l 211 991 l 90 408 b 442 -23 34 131 158 -23 b 821 206 607 -23 755 43 b 870 397 837 245 853 320 l 991 991 m 653 1054 l 775 1054 l 803 1198 l 682 1198 l 653 1054 m 431 1054 l 553 1054 l 581 1198 l 460 1198 l 431 1054 "},"ó":{"x_min":22.90625,"x_max":708.90625,"ha":797,"o":"m 138 284 b 408 630 138 433 231 630 b 593 427 534 630 593 540 b 331 87 593 286 500 87 b 138 284 205 87 138 166 m 22 283 b 319 -16 22 109 134 -16 b 708 437 565 -16 708 202 b 416 734 708 629 604 734 b 22 283 169 734 22 518 m 391 816 l 487 816 l 672 1015 l 518 1015 l 391 816 "},"√":{"x_min":146,"x_max":882,"ha":897,"o":"m 882 1146 l 800 1146 l 550 30 b 532 -72 543 -5 536 -46 l 529 -72 b 506 28 524 -44 514 -4 l 336 535 l 146 459 l 167 392 l 268 431 l 484 -205 l 579 -205 l 882 1146 "}}}
